<svg xmlns="http://www.w3.org/2000/svg" viewBox="0 0 64 80">
  <path fill="#8bb3f7" d="M26.124 30.876c.788.789 1.845 1.142 3.081 1.142 1.616 0 3.54-.61 5.57-1.633C35.854 33.404 37.301 35 39 35c1.816 0 3.227-1.829 4.226-4.615 2.029 1.022 3.953 1.632 5.569 1.632 1.236 0 2.293-.354 3.081-1.142 2.521-2.521.583-7.784-3.102-12.876 3.686-5.092 5.624-10.355 3.102-12.876-1.817-1.82-5.067-1.308-8.648.496C42.228 2.831 40.817 1 39 1c-1.7 0-3.148 1.598-4.228 4.621-3.58-1.803-6.83-2.315-8.648-.497-2.521 2.521-.583 7.784 3.102 12.876-3.685 5.092-5.623 10.355-3.102 12.876zm1.414-1.414c-1.318-1.318-.275-5.206 2.947-9.808a45.01 45.01 0 006.862 6.861c-4.603 3.221-8.492 4.265-9.809 2.947zm15.308-15.328a48.814 48.814 0 010 7.732A43.54 43.54 0 0139 25.291a43.769 43.769 0 01-3.856-3.435A43.609 43.609 0 0131.709 18a43.787 43.787 0 013.435-3.856 43.474 43.474 0 013.857-3.435 43.516 43.516 0 013.845 3.425zm-2.195-4.651c.461-.323.916-.63 1.36-.908.18.759.341 1.587.48 2.48a43.572 43.572 0 00-1.84-1.572zm4.325 6.935c.463.532.905 1.06 1.316 1.582a42.03 42.03 0 01-1.316 1.582 52.062 52.062 0 000-3.164zm-2.486 8.538a32.551 32.551 0 01-.476 2.462c-.445-.279-.898-.58-1.36-.903.621-.5 1.235-1.02 1.836-1.559zM39 33c-.642 0-1.615-1.13-2.448-3.596A34.975 34.975 0 0039 27.775a35.37 35.37 0 002.453 1.633C40.686 31.707 39.763 33 39 33zm11.462-3.538c-1.001 1.001-3.487.638-6.64-1.002.445-1.72.765-3.67.958-5.717a44.933 44.933 0 002.735-3.089c3.222 4.601 4.265 8.49 2.947 9.808zM48.767 5.979c.742 0 1.322.186 1.695.559 1.318 1.318.275 5.206-2.947 9.808a45.17 45.17 0 00-2.735-3.089c-.194-2.049-.514-4.001-.96-5.722 1.979-1.03 3.696-1.556 4.947-1.556zM39 3c.763 0 1.686 1.294 2.454 3.595a34.79 34.79 0 00-2.455 1.632A34.935 34.935 0 0036.551 6.6C37.384 4.131 38.358 3 39 3zM27.538 6.538c.373-.373.952-.559 1.695-.559 1.882 0 4.815 1.192 8.115 3.503a45.063 45.063 0 00-6.864 6.864c-3.221-4.601-4.264-8.49-2.946-9.808z"/>
  <circle fill='#25d6cd' cx="39" cy="18" r="2"/>
  <path fill='#dcdcdc' d="M36 49h22v4H36zM27.189 33.712A11.972 11.972 0 0118 38c-6.627 0-12-5.373-12-12s5.373-12 12-12c3.306 0 6.295 1.341 8.466 3.504-.778-1.202-1.45-2.388-1.977-3.519a20.473 20.473 0 01-.752-1.844A14.931 14.931 0 0018 11C9.729 11 3 17.729 3 26s6.729 15 15 15a14.967 14.967 0 0012.766-7.129 9.828 9.828 0 01-1.561.146 7.044 7.044 0 01-2.016-.305zM60 55H34a1 1 0 00-1 1v4a1 1 0 001 1h26a1 1 0 001-1v-4a1 1 0 00-1-1zm-9 4h-2v-2h2v2zm4 0h-2v-2h2v2zm4 0h-2v-2h2v2zM60 41H34a1 1 0 00-1 1v4a1 1 0 001 1h26a1 1 0 001-1v-4a1 1 0 00-1-1zm-23 4h-2v-2h2v2zm4 0h-2v-2h2v2zm4 0h-2v-2h2v2zM19 45.001a1 1 0 001-1v-1.132c-.659.077-1.323.131-2 .131-.678 0-1.343-.051-2-.128v1.129a1 1 0 001 1h2zM60 27h-5.02c.231 2.61-.671 4.272-1.69 5.29a5.634 5.634 0 01-.879.71H60a1 1 0 001-1v-4a1 1 0 00-1-1zM39 37c-.902 0-1.955-.274-3-1.093V39h22v-4H42.956c-1.069 1.249-2.372 2-3.956 2zM20 47.001h-4a1 1 0 00-1 1V58c0 1.654 1.346 3 3 3s3-1.346 3-3v-9.999a1 1 0 00-1-1z"/>
  <path fill='#55b0ff' d="M9 25h2v2H9zM17 25h2v2h-2zM13 25h2v2h-2zM21 25h2v2h-2z"/>
</svg>