<svg xmlns="http://www.w3.org/2000/svg" viewBox="0 0 60 75">
  <path fill="#ffffff" d="M1.1094 39.355c0 1.4082 1.1455 2.5542 2.5537 2.5542.5791 0 1.1078-.2013 1.537-.5274.0088.0053.0141.0142.0235.019 4.635 2.4258 9.6293 3.8843 14.8444 4.3405.17 1.2448 1.2286 2.2104 2.519 2.2104.6227 0 1.1867-.233 1.6306-.6049 2.0566 1.6693 4.2806 3.1353 6.6236 4.3561-.0468.1932-.0785.392-.0785.5993 0 .474.1384.9127.3644 1.2935a38.152 38.152 0 01-1.8319 1.5356c-.4616-.4568-1.0951-.7402-1.7942-.7402-1.4082 0-2.5547 1.146-2.5547 2.5547 0 1.4082 1.1465 2.5542 2.5547 2.5542s2.5537-1.146 2.5537-2.5542c0-.3482-.071-.68-.1976-.9827a39.3587 39.3587 0 001.9373-1.6226c.4265.3196.9503.516 1.523.516.876 0 1.6501-.4443 2.1106-1.1186.9384.3475 1.9004.662 2.8701.9384-.0061.072-.0217.1413-.0217.2148 0 1.4087 1.1465 2.5547 2.5547 2.5547s2.5546-1.146 2.5546-2.5547c0-1.4082-1.1464-2.5542-2.5546-2.5542-.9823 0-1.8272.5637-2.2545 1.3789a38.1165 38.1165 0 01-2.7565-.8999c.034-.166.052-.3378.052-.5137 0-.5845-.2054-1.1173-.5372-1.5483a39.3746 39.3746 0 004.7879-6.8552c.2504.0822.5128.138.7903.138 1.4082 0 2.5547-1.146 2.5547-2.5548 0-.3123-.0643-.6082-.1675-.8852C47.936 37.9196 52.056 34.2511 55.255 29.95c.3294.1552.6931.2487 1.0808.2487 1.4082 0 2.5547-1.146 2.5547-2.5542 0-1.4087-1.1465-2.5547-2.5547-2.5547-1.1163 0-2.0573.7248-2.4036 1.7252a37.8957 37.8957 0 01-6.9075-2.1047c.0263-.1468.0455-.2963.0455-.4505 0-1.2804-.95-2.3339-2.1803-2.5165a39.2625 39.2625 0 00-2.56-11.239c.685-.4588 1.1378-1.2387 1.1378-2.123 0-1.4086-1.1465-2.5546-2.5547-2.5546-1.2817 0-2.3363.9523-2.5173 2.185-2.4426.1935-4.8752.6232-7.2355 1.2706-.423-.8273-1.2746-1.401-2.2658-1.401-.2705 0-.5265.0538-.7714.132-.5212-.923-1.005-1.8753-1.4485-2.8399.681-.4593 1.13-1.2377 1.13-2.1192C27.8047 1.646 26.6583.5 25.25.5s-2.5547 1.146-2.5547 2.5542c0 1.4087 1.1465 2.5547 2.5547 2.5547.1716 0 .339-.0183.5012-.0507a39.2228 39.2228 0 001.498 2.94c-.5514.4689-.9094 1.1587-.9094 1.9373 0 .167.0186.3294.0494.4875-5.4783 2.2824-10.4475 5.8454-14.403 10.3197-.3343-.161-.7043-.2588-1.0995-.2588-.0184 0-.0354.005-.0537.0054-.1572-1.4222-.247-2.8745-.247-4.3306 0-1.0385.0485-2.0993.1342-3.1578 1.346-.07 2.4224-1.1777 2.4224-2.5414 0-1.4082-1.1455-2.5542-2.5537-2.5542s-2.5547 1.146-2.5547 2.5542c0 1.1051.7098 2.0396 1.6938 2.3948-.091 1.107-.142 2.2175-.142 3.3044 0 1.5296.0936 3.0568.2636 4.5502-.8917.3989-1.5166 1.291-1.5166 2.3297 0 .6206.2314 1.1828.6008 1.6259-2.4464 3.5975-4.2632 7.5159-5.4041 11.6498-1.3451.071-2.4203 1.1782-2.4203 2.5407zM40.831 53.337c.8574 0 1.5546.6972 1.5546 1.5541 0 .8574-.6972 1.5547-1.5546 1.5547s-1.5547-.6973-1.5547-1.5547c0-.857.6972-1.5542 1.5547-1.5542zM23.6953 3.0541c0-.857.6973-1.5542 1.5547-1.5542s1.5547.6973 1.5547 1.5542c0 .8574-.6973 1.5547-1.5547 1.5547s-1.5547-.6973-1.5547-1.5547zM9.0342 10.9595c0-.857.6972-1.5542 1.5547-1.5542.8564 0 1.5537.6972 1.5537 1.5542 0 .8574-.6973 1.5547-1.5537 1.5547-.8575 0-1.5547-.6973-1.5547-1.5547zm1.6842 15.1162c1.6371 6.681 5.0132 12.8466 9.7874 17.8508-.1727.2437-.2979.52-.377.8161-5.0026-.441-9.7956-1.8325-14.2535-4.1345.2117-.3718.3425-.7956.3425-1.2531 0-1.1032-.7076-2.0365-1.6894-2.393 1.1064-3.9583 2.8495-7.7125 5.188-11.1666a2.5196 2.5196 0 001.002.2803zM3.6631 40.9092c-.8565 0-1.5537-.6973-1.5537-1.5542s.6972-1.5542 1.5537-1.5542c.8574 0 1.5547.6972 1.5547 1.5542s-.6973 1.5542-1.5547 1.5542zm18.9238 6.0425c-.8564 0-1.5537-.6973-1.5537-1.5547 0-.857.6973-1.5542 1.5537-1.5542.8574 0 1.5547.6972 1.5547 1.5542 0 .8574-.6973 1.5547-1.5547 1.5547zM27.501 58.5c-.8573 0-1.5546-.6973-1.5546-1.5542 0-.8574.6973-1.5547 1.5547-1.5547.8564 0 1.5537.6973 1.5537 1.5547 0 .857-.6973 1.5542-1.5537 1.5542zm5.8165-4.6436c-.8574 0-1.5547-.6972-1.5547-1.5542s.6973-1.5542 1.5547-1.5542 1.5547.6973 1.5547 1.5542-.6973 1.5542-1.5547 1.5542zm1.2643-3.76c-.3744-.2155-.8023-.3484-1.2643-.3484-.843 0-1.586.4156-2.0517 1.0473-2.2705-1.1865-4.427-2.6085-6.4215-4.2279.1144-.2194.2035-.4527.2502-.7036 4.7318-.1824 9.3276-1.1977 13.668-3.0154.1343.2108.3012.3954.4896.5583-1.3117 2.384-2.879 4.6329-4.6703 6.6897zm6.3314-7.0598c-.8574 0-1.5547-.6972-1.5547-1.5547 0-.8569.6973-1.5542 1.5547-1.5542s1.5547.6973 1.5547 1.5542c0 .8575-.6973 1.5547-1.5547 1.5547zm15.4228-16.9468c.8575 0 1.5547.6973 1.5547 1.5547 0 .857-.6972 1.5542-1.5547 1.5542-.8564 0-1.5537-.6972-1.5537-1.5542 0-.8574.6973-1.5547 1.5537-1.5547zm-2.537 1.72c.0389.5933.2765 1.1293.653 1.5441-3.1233 4.1994-7.1476 7.7815-11.6764 10.3919a2.5605 2.5605 0 00-.5032-.4182c1.5798-4.011 2.4832-8.2323 2.6913-12.5584a2.551 2.551 0 001.6955-1.1289 38.9159 38.9159 0 007.1399 2.1695zm-7.7286-3.55c0 .8574-.6973 1.5547-1.5537 1.5547-.0028 0-.0054-.0008-.0082-.0008l-.0006-.0002h-.0004c-.8532-.005-1.5455-.6994-1.5455-1.5537 0-.857.6973-1.5542 1.5547-1.5542.8564 0 1.5537.6972 1.5537 1.5542zM40.9131 6.8267c.8574 0 1.5547.6972 1.5547 1.5546 0 .857-.6973 1.5542-1.5547 1.5542s-1.5547-.6972-1.5547-1.5542c0-.8574.6973-1.5546 1.5547-1.5546zm-2.4666 2.1848c.2828 1.1028 1.277 1.924 2.4666 1.924.1688 0 .3332-.0184.493-.0498a38.2994 38.2994 0 012.484 10.9068 2.5447 2.5447 0 00-1.267.7688c-4.5736-2.6013-8.6515-6.2078-11.8211-10.4448.3972-.4504.6462-1.0347.6462-1.681 0-.065-.0144-.1262-.0192-.19 2.2892-.6278 4.6475-1.0443 7.0175-1.234zm-7.9983 1.424c0 .857-.6972 1.5542-1.5537 1.5542-.8574 0-1.5547-.6972-1.5547-1.5542s.6973-1.5542 1.5547-1.5542c.8565 0 1.5537.6973 1.5537 1.5542zm-3.6792 1.4127c.4585.6871 1.2396 1.1415 2.1255 1.1415.4008 0 .7753-.101 1.1131-.2663 3.2474 4.3384 7.4239 8.0324 12.1069 10.6992-.0923.2637-.1526.5424-.1526.8372 0 1.218.8585 2.236 2.0007 2.4903-.205 4.2102-1.0856 8.3172-2.6242 12.2207-.139-.0236-.2797-.043-.4253-.043-1.4082 0-2.5547 1.146-2.5547 2.5541 0 .1485.0194.292.0438.4336-4.2282 1.7747-8.7067 2.7664-13.3187 2.9479-.2465-1.1527-1.2715-2.0206-2.4966-2.0206-.4983 0-.96.1491-1.3534.397-4.6313-4.8517-7.9102-10.8245-9.5157-17.2977.9994-.347 1.7236-1.2878 1.7236-2.4035 0-.6505-.252-1.2385-.6538-1.69 3.846-4.3332 8.6675-7.7856 13.9814-10.0004zM10.8867 21.984c.8574 0 1.5547.6973 1.5547 1.5547 0 .857-.6973 1.5542-1.5547 1.5542-.8564 0-1.5537-.6973-1.5537-1.5542 0-.8574.6973-1.5547 1.5537-1.5547z"/>
</svg>