<svg xmlns="http://www.w3.org/2000/svg" xmlns:xlink="http://www.w3.org/1999/xlink" version="1.1" x="0px" y="0px" viewBox="0 0 36 45" style="enable-background:new 0 0 36 36;" xml:space="preserve"><g><path d="M19.53,9.12C19.2,9.29,19,9.63,19,10v3H8c-0.55,0-1,0.45-1,1s0.45,1,1,1h12c0.55,0,1-0.45,1-1v-2.13L30.2,18L21,24.13V22   c0-0.55-0.45-1-1-1H8c-0.55,0-1,0.45-1,1s0.45,1,1,1h11v3c0,0.37,0.2,0.71,0.53,0.88C19.68,26.96,19.84,27,20,27   c0.19,0,0.39-0.06,0.55-0.17l12-8C32.83,18.65,33,18.33,33,18s-0.17-0.65-0.45-0.83l-12-8C20.25,8.96,19.85,8.94,19.53,9.12z"/><path d="M20,19c0.55,0,1-0.45,1-1s-0.45-1-1-1H4c-0.55,0-1,0.45-1,1s0.45,1,1,1H20z"/></g><text x="0" y="51" fill="#000000" font-size="5px" font-weight="bold" font-family="'Helvetica Neue', Helvetica, Arial-Unicode, Arial, Sans-serif">Created by newstudiodesign10</text><text x="0" y="56" fill="#000000" font-size="5px" font-weight="bold" font-family="'Helvetica Neue', Helvetica, Arial-Unicode, Arial, Sans-serif">from the Noun Project</text></svg>