<svg xmlns="http://www.w3.org/2000/svg" xmlns:xlink="http://www.w3.org/1999/xlink" version="1.1" x="0px" y="0px" viewBox="0 0 100 125" style="enable-background:new 0 0 100 100;" xml:space="preserve"><path d="M50.511,63.653l3.231-13.285l-0.265,0.263c-0.391,0.385-1.018,0.385-1.408,0l-2.072-2.053l-2.07,2.052  c-0.195,0.193-0.449,0.29-0.704,0.29s-0.51-0.097-0.704-0.29l-0.26-0.258l3.231,13.282H50.511z"/><rect x="47.637" y="65.653" width="4.727" height="4.728"/><path d="M46.637,72.381h-3.763v3.574c0,2.99,2.434,5.424,5.424,5.424h3.404c2.99,0,5.424-2.434,5.424-5.424v-3.574h-3.763H46.637z"/><path d="M48.298,83.379c-0.077,0-0.151-0.009-0.228-0.012c0.069,0.394,0.254,0.763,0.548,1.059C48.986,84.795,49.479,85,50.002,85  c0.969,0,1.772-0.708,1.931-1.633c-0.077,0.002-0.153,0.012-0.231,0.012H48.298z"/><path d="M80.5,5h-61C11.492,5,5,11.492,5,19.5v61C5,88.508,11.492,95,19.5,95h61C88.508,95,95,88.508,95,80.5v-61  C95,11.492,88.508,5,80.5,5z M65.524,31.737l6.874-6.874c0.391-0.391,1.023-0.391,1.414,0s0.391,1.023,0,1.414l-6.874,6.874  c-0.195,0.195-0.451,0.293-0.707,0.293s-0.512-0.098-0.707-0.293C65.134,32.761,65.134,32.128,65.524,31.737z M49,16  c0-0.553,0.447-1,1-1s1,0.447,1,1v9.721c0,0.553-0.447,1-1,1s-1-0.447-1-1V16z M26.188,24.863c0.391-0.391,1.023-0.391,1.414,0  l6.874,6.874c0.391,0.391,0.391,1.023,0,1.414c-0.195,0.195-0.451,0.293-0.707,0.293s-0.512-0.098-0.707-0.293l-6.874-6.874  C25.797,25.887,25.797,25.254,26.188,24.863z M17.324,49.676c-0.553,0-1-0.447-1-1s0.447-1,1-1h9.721c0.553,0,1,0.447,1,1  s-0.447,1-1,1H17.324z M34.476,65.614l-6.874,6.874c-0.195,0.195-0.451,0.293-0.707,0.293s-0.512-0.098-0.707-0.293  c-0.391-0.391-0.391-1.023,0-1.414l6.874-6.874c0.391-0.391,1.023-0.391,1.414,0S34.866,65.224,34.476,65.614z M59.126,72.072v3.883  c0,3.304-2.17,6.108-5.159,7.068v0.012c0,2.187-1.778,3.965-3.965,3.965c-1.059,0-2.054-0.413-2.803-1.164  c-0.75-0.759-1.162-1.752-1.162-2.801v-0.011c-2.991-0.959-5.163-3.764-5.163-7.069v-3.881c0-3.664-1.437-7.127-3.942-9.5  c-4.262-4.034-6.397-9.717-5.857-15.591c0.819-8.922,7.869-16.111,16.764-17.094c5.484-0.605,10.758,1.069,14.838,4.723  c4.024,3.604,6.332,8.768,6.332,14.166c0,5.158-2.033,9.984-5.726,13.591C60.603,64.988,59.126,68.434,59.126,72.072z   M73.813,72.488c-0.195,0.195-0.451,0.293-0.707,0.293s-0.512-0.098-0.707-0.293l-6.874-6.874c-0.391-0.391-0.391-1.023,0-1.414  s1.023-0.391,1.414,0l6.874,6.874C74.203,71.465,74.203,72.098,73.813,72.488z M82.676,49.676h-9.721c-0.553,0-1-0.447-1-1  s0.447-1,1-1h9.721c0.553,0,1,0.447,1,1S83.229,49.676,82.676,49.676z"/><path d="M61.341,36.103c-3.159-2.829-7.12-4.334-11.316-4.334c-0.65,0-1.307,0.036-1.967,0.109  c-7.954,0.879-14.259,7.309-14.991,15.289c-0.483,5.259,1.427,10.345,5.24,13.955c2.51,2.377,4.089,5.685,4.471,9.259h2.859v-5.728  c0-0.553,0.447-1,1-1h0.794l-3.952-16.247c-0.009-0.038,0-0.074-0.004-0.112c-0.009-0.069-0.014-0.134-0.008-0.203  c0.005-0.065,0.018-0.125,0.036-0.187c0.017-0.06,0.036-0.117,0.064-0.173c0.031-0.063,0.07-0.118,0.114-0.173  c0.023-0.029,0.034-0.065,0.061-0.092c0.018-0.018,0.041-0.024,0.06-0.04c0.051-0.045,0.108-0.079,0.168-0.113  c0.059-0.033,0.115-0.063,0.178-0.083c0.024-0.008,0.042-0.025,0.067-0.031c0.039-0.01,0.078,0,0.117-0.005  c0.065-0.008,0.127-0.013,0.193-0.008c0.069,0.005,0.132,0.019,0.197,0.038c0.058,0.016,0.112,0.035,0.167,0.062  c0.063,0.031,0.118,0.07,0.173,0.114c0.03,0.024,0.066,0.034,0.094,0.062l2.068,2.052l2.07-2.052  c0.391-0.387,1.018-0.386,1.408-0.001l2.072,2.054l2.072-2.054c0.029-0.028,0.066-0.04,0.097-0.064  c0.053-0.042,0.106-0.079,0.167-0.109c0.057-0.029,0.114-0.048,0.175-0.065c0.062-0.018,0.123-0.03,0.188-0.036  c0.068-0.005,0.133,0,0.2,0.008c0.038,0.005,0.075-0.005,0.113,0.005c0.025,0.006,0.042,0.023,0.066,0.031  c0.064,0.021,0.122,0.051,0.182,0.085c0.059,0.033,0.114,0.066,0.164,0.11c0.019,0.017,0.044,0.023,0.062,0.042  c0.028,0.028,0.039,0.065,0.062,0.095c0.042,0.054,0.08,0.107,0.111,0.168c0.029,0.058,0.049,0.115,0.065,0.177  c0.017,0.061,0.03,0.121,0.035,0.185c0.006,0.069,0.001,0.135-0.008,0.204c-0.005,0.037,0.005,0.074-0.004,0.111L52.57,63.653h0.794  c0.553,0,1,0.447,1,1v5.728h2.862c0.392-3.547,2.009-6.852,4.659-9.442c3.304-3.227,5.123-7.545,5.123-12.16  C67.008,43.947,64.942,39.327,61.341,36.103z M58.881,37.574c-0.194,0.284-0.508,0.438-0.828,0.438c-0.193,0-0.39-0.056-0.562-0.173  c-1.176-0.801-2.462-1.403-3.822-1.791c-0.531-0.151-0.839-0.705-0.688-1.236c0.152-0.531,0.706-0.832,1.236-0.688  c1.565,0.447,3.046,1.141,4.398,2.061C59.073,36.496,59.191,37.118,58.881,37.574z M64.323,49.854c-0.553,0-1-0.447-1-1  c0-3.149-1.12-6.206-3.153-8.604c-0.357-0.421-0.306-1.052,0.116-1.409c0.422-0.358,1.054-0.304,1.409,0.116  c2.34,2.76,3.628,6.274,3.628,9.897C65.323,49.406,64.876,49.854,64.323,49.854z"/><text x="0" y="115" fill="#000000" font-size="5px" font-weight="bold" font-family="'Helvetica Neue', Helvetica, Arial-Unicode, Arial, Sans-serif">Created by Artem Yurov</text><text x="0" y="120" fill="#000000" font-size="5px" font-weight="bold" font-family="'Helvetica Neue', Helvetica, Arial-Unicode, Arial, Sans-serif">from the Noun Project</text></svg>