<svg xmlns="http://www.w3.org/2000/svg" xmlns:xlink="http://www.w3.org/1999/xlink" version="1.1" x="0px" y="0px" viewBox="0 0 24 30" style="enable-background:new 0 0 24 24;" xml:space="preserve"><style type="text/css">
	.st0{fill:#FFFFFF;}
</style><g><g><g><rect x="11.5" y="1.000061" width="1" height="3"/><rect x="1" y="11.500061" width="3" height="1"/><rect x="20" y="11.500061" width="3" height="1"/><rect x="17.217514" y="4.7825465" transform="matrix(0.7071068 -0.7071068 0.7071068 0.7071068 1.7469085 14.7825031)" width="3" height="1"/><g><path d="M12,8c2.2055969,0,4,1.7943916,4,4c0,1.5861015-0.9424438,3.0234299-2.4009399,3.6617813L13,15.9239616v0.6539192V18h-2      v-1.4221191v-0.6539192l-0.5990601-0.2621803C8.9424438,15.0234299,8,13.5861015,8,12C8,9.7943916,9.7944031,8,12,8 M12,7      c-2.7614136,0-5,2.2385902-5,5c0,2.0491905,1.2355957,3.8056602,3,4.5778809V19h4v-2.4221191      C15.7644043,15.8056602,17,14.0491905,17,12C17,9.2385902,14.7614136,7,12,7L12,7z"/><polygon points="14,20 10,20 10,21 11,21 11,22 13,22 13,21 14,21 14,20     "/></g><rect x="4.7824855" y="3.7825465" transform="matrix(0.7071068 -0.7071068 0.7071068 0.7071068 -2.1881204 5.2825036)" width="1" height="3"/></g></g></g><text x="0" y="39" fill="#000000" font-size="5px" font-weight="bold" font-family="'Helvetica Neue', Helvetica, Arial-Unicode, Arial, Sans-serif">Created by Sophia Bai</text><text x="0" y="44" fill="#000000" font-size="5px" font-weight="bold" font-family="'Helvetica Neue', Helvetica, Arial-Unicode, Arial, Sans-serif">from the Noun Project</text></svg>