<svg xmlns="http://www.w3.org/2000/svg" xmlns:xlink="http://www.w3.org/1999/xlink" xml:space="preserve" version="1.1" style="shape-rendering:geometricPrecision;text-rendering:geometricPrecision;image-rendering:optimizeQuality;" viewBox="0 0 847 1058.75" x="0px" y="0px" fill-rule="evenodd" clip-rule="evenodd"><defs><style type="text/css">
   
    .fil0 {fill:black;fill-rule:nonzero}
   
  </style></defs><g><path class="fil0" d="M381 778c-30,30 -80,30 -110,0 -36,-36 -28,-95 15,-121l-52 -154 -16 0 -52 154c43,26 51,85 15,121 -14,14 -33,23 -55,23 -68,0 -103,-84 -55,-133 17,-16 39,-25 63,-22l52 -154c-67,-41 -38,-144 40,-144 10,0 19,2 27,5l115 -175c-30,-31 -29,-79 0,-109 31,-30 80,-30 110,0 30,30 30,78 1,109l114 175c51,-19 105,18 105,72 0,28 -15,53 -37,67l51 154c73,-7 114,81 63,132 -30,30 -79,30 -109,0 -36,-36 -29,-95 14,-121l-51 -154 -16 0 -52 154c43,25 50,85 15,121 -30,30 -80,30 -110,0 -52,-52 -9,-139 63,-132l52 -154c-23,-14 -38,-39 -38,-67 0,-21 8,-40 22,-54l-114 -175 -55 0 -114 175c35,36 27,95 -16,121l52 154c72,-7 114,81 63,132z"/></g><text x="0" y="862" fill="#000000" font-size="5px" font-weight="bold" font-family="'Helvetica Neue', Helvetica, Arial-Unicode, Arial, Sans-serif">Created by alex setyawan</text><text x="0" y="867" fill="#000000" font-size="5px" font-weight="bold" font-family="'Helvetica Neue', Helvetica, Arial-Unicode, Arial, Sans-serif">from the Noun Project</text></svg>