<svg xml:space="preserve" version="1.1" viewBox="0 0 847 847" x="0px" y="0px" ><g><path d="M597 213c128,-128 321,66 194,193 -49,49 -122,54 -179,14l-153 160c85,110 -70,248 -169,149 -51,-51 -42,-135 18,-174l-59 -128c-113,39 -233,-46 -233,-167 0,-156 190,-235 300,-124 32,32 52,76 52,125l192 18c6,-25 19,-48 37,-66zm-232 81c-10,51 -41,94 -85,119l58 128c35,-9 67,-5 96,16l154 -161c-20,-23 -31,-52 -31,-83l-192 -19zm-273 -134c-134,134 69,332 201,201 132,-132 -69,-334 -201,-201zm333 434c-73,-74 -186,37 -111,111 73,74 185,-38 111,-111zm196 -357c-97,96 49,242 146,146 96,-97 -50,-242 -146,-146z"/></g></svg>