<svg xmlns="http://www.w3.org/2000/svg" xmlns:xlink="http://www.w3.org/1999/xlink" version="1.1" x="0px" y="0px" viewBox="0 0 91 113.75" enable-background="new 0 0 91 91" xml:space="preserve"><g><g><g><g><path d="M62.489,54.118c-5.408,0-10.262,2.361-13.629,6.09l-7.438-5.375c2.131-2.908,3.406-6.48,3.406-10.355      c0-4.354-1.602-8.334-4.234-11.407l10.328-8.697c2.451,2.234,5.695,3.609,9.266,3.609c7.594,0,13.771-6.18,13.771-13.775      S67.782,0.432,60.188,0.432c-7.598,0-13.777,6.18-13.777,13.775c0,2.215,0.539,4.303,1.471,6.158l-11.115,9.361      c-2.746-1.775-6.008-2.818-9.514-2.818c-9.688,0-17.57,7.881-17.57,17.569c0,9.691,7.883,17.576,17.57,17.576      c3.986,0,7.656-1.35,10.607-3.596l8.172,5.904c-1.221,2.457-1.924,5.213-1.924,8.137c0,10.135,8.246,18.379,18.381,18.379      c10.133,0,18.377-8.244,18.377-18.379S72.622,54.118,62.489,54.118z M51.437,14.208c0-4.826,3.926-8.75,8.752-8.75      c4.822,0,8.746,3.924,8.746,8.75c0,4.824-3.924,8.75-8.746,8.75c-2.027,0-3.891-0.699-5.375-1.859l5.9-4.969      c1.063-0.895,1.197-2.479,0.305-3.541c-0.895-1.063-2.479-1.195-3.541-0.303l-5.582,4.699      C51.603,16.112,51.437,15.178,51.437,14.208z M27.253,57.028c-6.918,0-12.545-5.629-12.545-12.551      c0-6.916,5.627-12.543,12.545-12.543c6.92,0,12.551,5.627,12.551,12.543c0,2.775-0.918,5.336-2.449,7.416l-8.277-5.982      c-1.125-0.814-2.695-0.561-3.508,0.564s-0.561,2.695,0.564,3.508l7.396,5.346C31.681,56.403,29.542,57.028,27.253,57.028z       M62.489,85.853c-7.365,0-13.355-5.99-13.355-13.354c0-7.365,5.99-13.355,13.355-13.355c7.363,0,13.352,5.99,13.352,13.355      C75.841,79.862,69.853,85.853,62.489,85.853z"/></g></g></g></g><text x="0" y="106" fill="#000000" font-size="5px" font-weight="bold" font-family="'Helvetica Neue', Helvetica, Arial-Unicode, Arial, Sans-serif">Created by BomSymbols</text><text x="0" y="111" fill="#000000" font-size="5px" font-weight="bold" font-family="'Helvetica Neue', Helvetica, Arial-Unicode, Arial, Sans-serif">from the Noun Project</text></svg>