<svg xmlns="http://www.w3.org/2000/svg" xmlns:xlink="http://www.w3.org/1999/xlink" version="1.1" preserveAspectRatio="none" x="0px" y="0px" viewBox="0 0 150 187.5"><defs><g id="a"><path fill="#000000" stroke="none" d=" M 135.05 17.6 Q 135.05 10.35 129.9 5.05 124.6 0 117.25 0 L 17.65 0 Q 10.25 0 5.2 5.05 0 10.05 0 17.6 L 0 80.1 Q 0 87.45 5.15 92.7 10.3 97.9 17.65 97.9 L 19.15 97.9 19.05 124.2 Q 19.05 129.6 21.5 130.5 23.95 131.35 27.5 127.2 L 52 97.9 117.25 97.9 Q 124.65 97.9 129.85 92.7 135.05 87.45 135.05 80.1 L 135.05 17.6 M 95.1 23.25 L 95.1 23.3 Q 95.7 23.95 95.7 24.75 95.7 25.6 95.1 26.2 L 86.3 34.95 Q 85.8 35.55 84.9 35.55 83.9 35.55 83.4 34.9 82.8 34.3 82.8 33.55 82.8 32.65 83.45 32.05 L 92.15 23.25 92.2 23.25 Q 92.9 22.65 93.65 22.65 94.5 22.65 95.1 23.25 M 93.65 49 L 107.3 49 Q 108.15 49 108.8 49.6 L 108.8 49.65 Q 109.4 50.25 109.4 51.1 109.4 51.95 108.8 52.55 108.15 53.2 107.3 53.2 L 93.65 53.2 Q 92.8 53.2 92.2 52.55 L 92.2 52.5 Q 91.6 51.95 91.6 51.1 91.6 50.25 92.2 49.65 92.75 49 93.65 49 M 65.25 12.05 Q 65.25 11.2 65.9 10.65 L 65.9 10.6 Q 66.5 10.05 67.35 10.05 68.2 10.05 68.75 10.65 L 68.8 10.65 Q 69.35 11.2 69.35 12.05 L 69.35 24.75 Q 69.35 25.6 68.8 26.2 68.2 26.8 67.35 26.8 66.5 26.8 65.9 26.2 65.25 25.6 65.25 24.75 L 65.25 12.05 M 41 22.65 Q 41.85 22.65 42.45 23.25 L 51.2 32.05 Q 51.85 32.65 51.85 33.55 51.85 34.35 51.25 34.95 L 51.2 34.95 Q 50.65 35.55 49.75 35.55 48.85 35.55 48.35 34.95 48.3 34.95 48.3 34.9 L 39.55 26.2 Q 38.95 25.6 38.95 24.75 38.95 23.95 39.5 23.3 39.5 23.25 39.55 23.25 40.15 22.65 41 22.65 M 67.5 33.05 Q 74.85 33.05 80.05 38.25 85.3 43.5 85.3 50.9 85.3 57.65 80.7 62.75 77.35 67.15 75.75 70.1 74.75 72 74.65 72.75 74.5 73.1 74.45 73.55 74.4 73.85 74.2 74.1 73.7 74.65 72.75 74.65 L 62.15 74.65 Q 61.1 74.65 60.75 74.1 60.5 73.85 60.4 73.6 60.4 73.25 60.3 72.75 59.5 69.6 53.7 62.2 49.65 57.15 49.65 50.9 49.65 43.5 54.9 38.25 60.1 33.05 67.5 33.05 M 27.35 53.2 Q 26.45 53.2 25.9 52.6 L 25.85 52.55 Q 25.25 51.95 25.25 51.1 25.25 50.25 25.85 49.6 26.45 49 27.35 49 L 41 49 Q 41.85 49 42.45 49.6 43.1 50.25 43.1 51.1 43.1 51.95 42.5 52.55 42.45 52.55 42.45 52.6 41.85 53.2 41 53.2 L 27.35 53.2 M 72.4 77 Q 73 77 73.45 77.45 73.9 77.9 73.9 78.5 73.9 79.1 73.45 79.55 73 80 72.4 80 L 62.4 80 Q 61.8 80 61.35 79.55 60.9 79.1 60.9 78.5 60.9 77.9 61.35 77.45 61.8 77 62.4 77 L 72.4 77 M 65.15 84.25 Q 64.3 83.4 64.25 82.2 L 70.15 82.2 Q 70.05 83.4 69.25 84.25 68.4 85.05 67.2 85.05 66.05 85.05 65.15 84.25 Z"/></g></defs><g transform="matrix( 1, 0, 0, 1, 8,13.2) "><g transform="matrix( 1, 0, 0, 1, 0,0) "><use xlink:href="#a"/></g></g><text x="0" y="165" fill="#000000" font-size="5px" font-weight="bold" font-family="'Helvetica Neue', Helvetica, Arial-Unicode, Arial, Sans-serif">Created by Matt Wasser</text><text x="0" y="170" fill="#000000" font-size="5px" font-weight="bold" font-family="'Helvetica Neue', Helvetica, Arial-Unicode, Arial, Sans-serif">from the Noun Project</text></svg>