<svg xmlns="http://www.w3.org/2000/svg" xmlns:xlink="http://www.w3.org/1999/xlink" version="1.1" x="0px" y="0px" viewBox="0 0 100 125" style="enable-background:new 0 0 100 100;" xml:space="preserve"><path d="M42.994,10.871c-2.139-0.886-4.482-0.42-6.119,1.218L10.652,38.311c-1.637,1.637-2.104,3.981-1.218,6.12  s2.874,3.467,5.188,3.467h26.223c3.097,0,5.615-2.519,5.615-5.615V16.06C46.461,13.744,45.133,11.756,42.994,10.871z M42.461,42.282  c0,0.891-0.725,1.615-1.615,1.615H14.623c-1.002,0-1.396-0.764-1.493-0.997c-0.097-0.234-0.358-1.053,0.351-1.762l26.223-26.222  c0.375-0.375,0.78-0.479,1.113-0.479c0.297,0,0.537,0.082,0.647,0.128c0.233,0.097,0.997,0.491,0.997,1.493V42.282z"/><path d="M40.846,53.539H14.623c-2.315,0-4.304,1.328-5.188,3.467c-0.886,2.139-0.419,4.483,1.218,6.119l26.223,26.223  c1.088,1.089,2.489,1.659,3.935,1.659c0.729,0,1.468-0.145,2.185-0.441c2.139-0.885,3.467-2.873,3.467-5.188V59.154  C46.461,56.058,43.942,53.539,40.846,53.539z M42.461,85.377c0,1.002-0.764,1.396-0.997,1.493c-0.233,0.098-1.052,0.358-1.761-0.351  L13.48,60.297c-0.708-0.708-0.447-1.526-0.351-1.761c0.097-0.233,0.491-0.997,1.493-0.997h26.223c0.891,0,1.615,0.725,1.615,1.615  V85.377z"/><path d="M70.125,3.652c-1.636-1.638-3.98-2.104-6.119-1.218c-2.139,0.885-3.467,2.873-3.467,5.188v26.223  c0,3.097,2.519,5.615,5.615,5.615h26.223c2.315,0,4.304-1.328,5.188-3.467c0.886-2.139,0.419-4.483-1.218-6.119L70.125,3.652z   M93.87,34.464c-0.097,0.233-0.491,0.997-1.493,0.997H66.154c-0.891,0-1.615-0.725-1.615-1.615V7.623  c0-1.002,0.764-1.396,0.997-1.493c0.11-0.046,0.351-0.128,0.647-0.128c0.333,0,0.738,0.104,1.113,0.479L93.52,32.703  C94.228,33.411,93.967,34.229,93.87,34.464z"/><path d="M83.94,53.539H57.718c-3.097,0-5.615,2.519-5.615,5.615v26.223c0,2.314,1.328,4.303,3.467,5.188  c0.717,0.297,1.456,0.441,2.185,0.441c1.445,0,2.848-0.57,3.936-1.659l26.222-26.223c1.637-1.636,2.104-3.98,1.218-6.119  C88.244,54.867,86.256,53.539,83.94,53.539z M85.083,60.297L58.861,86.52c-0.708,0.709-1.527,0.448-1.762,0.351  c-0.233-0.097-0.997-0.491-0.997-1.493V59.154c0-0.891,0.725-1.615,1.615-1.615H83.94c1.002,0,1.396,0.764,1.493,0.997  C85.53,58.771,85.791,59.589,85.083,60.297z"/><text x="0" y="115" fill="#000000" font-size="5px" font-weight="bold" font-family="'Helvetica Neue', Helvetica, Arial-Unicode, Arial, Sans-serif">Created by Timofey Rostilov</text><text x="0" y="120" fill="#000000" font-size="5px" font-weight="bold" font-family="'Helvetica Neue', Helvetica, Arial-Unicode, Arial, Sans-serif">from the Noun Project</text></svg>