<svg xmlns="http://www.w3.org/2000/svg" xmlns:xlink="http://www.w3.org/1999/xlink" version="1.0" x="0px" y="0px" viewBox="0 0 100 125" enable-background="new 0 0 100 100" xml:space="preserve"><path d="M96.0090256,88.5820923c0.007309-0.0126495,0.0148468-0.0250778,0.0208664-0.038353  c0.0061874-0.0136108,0.0107956-0.0278397,0.015686-0.0421219c0.004837-0.0141144,0.0097885-0.0281219,0.0132751-0.0426865  c0.0032043-0.0136108,0.0050049-0.0276718,0.0069733-0.0417328c0.0023651-0.0165329,0.0044403-0.0329514,0.0050049-0.0497131  c0.0001678-0.0050583,0.0015182-0.0098419,0.0015182-0.0149612c0-0.0087738-0.0020828-0.0168686-0.0025864-0.025528  c-0.0009003-0.0168228-0.0022507-0.0334625-0.0050583-0.0502243c-0.0024796-0.0147934-0.0059662-0.0290222-0.0097885-0.0433044  s-0.0078735-0.0283432-0.0131607-0.0424042c-0.0060196-0.0159149-0.0131607-0.031044-0.0208054-0.0461197  c-0.0038834-0.0076447-0.006134-0.015686-0.0104599-0.0232239l-2.2805099-3.9498062l-2.2806244-3.9500351l-2.2805099-3.9500351  l-2.2805099-3.9500351l-2.2805099-3.9500351l-2.2805099-3.9500275l-2.2806168-3.9498138l-2.2805099-3.9500313l-2.2805099-3.9500351  l-2.2805099-3.9500313l-2.2805099-3.9500351l-2.2806244-3.9500351l-2.2805099-3.9498062l-2.2805099-3.9500351l-2.2805061-3.9500332  l-2.2805099-3.9500332l-2.2806244-3.9500351l-2.2805061-3.9500332l-2.2805099-3.9500332l-2.2805099-3.9498091  c-0.0043869-0.0075922-0.0102348-0.0136099-0.0149612-0.0208082c-0.0091667-0.01406-0.0185585-0.0276699-0.0292435-0.0407171  c-0.0097847-0.0119228-0.0202446-0.0227776-0.0309868-0.0335188c-0.010067-0.0100107-0.0201912-0.0197964-0.0313263-0.0290194  c-0.0138931-0.0114737-0.0283432-0.0214834-0.0433044-0.0311575C50.2433891,8.962451,50.2378769,8.956995,50.2309036,8.953002  c-0.0040474-0.002305-0.0083237-0.0033741-0.0123711-0.0056238c-0.0159721-0.0085478-0.0323944-0.015522-0.049099-0.0221577  c-0.0122032-0.004837-0.0241241-0.0098982-0.036499-0.0136099c-0.0151825-0.004612-0.0305939-0.0074806-0.0461159-0.0104609  c-0.0141716-0.0027561-0.0281181-0.0057926-0.042347-0.0071421c-0.0147896-0.0014629-0.0295258-0.0011816-0.0444298-0.0011816  s-0.0296936-0.0002813-0.044487,0.0011816c-0.014225,0.0014057-0.028286,0.0043859-0.0424576,0.0071421  c-0.0154686,0.0029802-0.0308189,0.0058489-0.0458946,0.0104046c-0.0124817,0.003768-0.0245743,0.0088854-0.0368919,0.0137787  c-0.0165901,0.0065794-0.0328445,0.0134974-0.0485916,0.0219326c-0.0041618,0.0022497-0.0085487,0.0033751-0.0126534,0.0057364  c-0.0070839,0.0041056-0.0127106,0.0096178-0.0194588,0.0140038c-0.0147324,0.0095606-0.0290756,0.0194588-0.0427399,0.0307074  c-0.0113068,0.0093355-0.0215988,0.01929-0.0318336,0.0295258c-0.0105705,0.0105724-0.0209198,0.0212584-0.0305367,0.0330124  c-0.0107994,0.0131035-0.0202484,0.0268822-0.0294685,0.0409985c-0.0046692,0.0071983-0.0105743,0.0131598-0.014904,0.0206957  l-2.2805099,3.9498091l-2.2806206,3.9500332l-2.2805099,3.9500332l-2.2805099,3.9500351l-2.2805099,3.9500332l-2.2805099,3.9500332  l-2.2806206,3.9500351l-2.2805099,3.9498062l-2.2805099,3.9500351l-2.2805099,3.9500351  c-0.1275501,0.2206802-0.0518532,0.5032272,0.1690559,0.6307793c0.0726604,0.0418434,0.152071,0.0618629,0.2303562,0.0618629  c0.1596088,0,0.3148289-0.0827827,0.4003124-0.2310295l1.8806477-3.2574463l1.8806477,3.2574463  c0.0854836,0.1482468,0.2407036,0.2310295,0.4003124,0.2310295c0.0782852,0,0.1576939-0.0200195,0.2303562-0.0618629  c0.2209091-0.127552,0.296608-0.410099,0.1690559-0.6307793l-2.1472225-3.7192268l2.0139332-3.4884224h4.0279846  l2.1472206,3.7192268l2.1472206,3.7192268l-2.0139885,3.4884224h-3.4948883l1.8808708-3.2576141  c0.0824471-0.142849,0.0824471-0.3187675,0-0.4616127l-2.2806206-3.9500351  c-0.127327-0.2211342-0.4097633-0.2969437-0.6307831-0.1689453c-0.2207947,0.127327-0.2964935,0.409874-0.1689415,0.630558  l2.1473351,3.7192268l-2.0140495,3.4884224h-4.2944431c-0.2549896,0-0.4617252,0.2065086-0.4617252,0.4616127  c0,0.2551003,0.2067356,0.4616127,0.4617252,0.4616127h4.5588245c0.000618,0,0.0011826,0.0002251,0.0017433,0.0002251  c0.0005646,0,0.0011253-0.0002251,0.0017433-0.0002251h4.5576439c0.0006218,0,0.0011826,0.0002251,0.0017471,0.0002251  c0.0005608,0,0.0011215-0.0002251,0.0017433-0.0002251h4.5575294c0.000618,0,0.0011826,0.0002251,0.0017433,0.0002251  c0.0021362,0,0.0041618-0.0007896,0.0062981-0.0007896c0.0348701-0.0004463,0.0684433-0.0053406,0.1010094-0.0131035  c0.0104599-0.0024719,0.0202446-0.0062408,0.0304794-0.0094452c0.0250854-0.0078735,0.0490417-0.017437,0.0720444-0.0292473  c0.0101776-0.0051727,0.0200768-0.0102348,0.0298615-0.01614c0.0268822-0.0164223,0.0519676-0.0350914,0.0748558-0.0564651  c0.0035439-0.0032616,0.0076485-0.0056229,0.0110779-0.0091095c0.026207-0.0259819,0.0480843-0.0557327,0.0674896-0.0873947  c0.002079-0.0034332,0.0051727-0.0058517,0.0071983-0.0093384l2.2805099-3.9500313l2.2806206-3.9500351  c0.0043869-0.007534,0.0066376-0.0156326,0.0104599-0.0232811c0.0076485-0.0150757,0.0148468-0.0301476,0.0208092-0.0460625  c0.0052872-0.014061,0.0093346-0.0281754,0.0131607-0.0424614c0.0038223-0.0142288,0.007309-0.0284576,0.0097847-0.0432472  c0.0028114-0.016758,0.0041618-0.0334053,0.0050621-0.0502205c0.0005074-0.008606,0.0025864-0.0167618,0.0025864-0.0255318  c0-0.0051193-0.0013504-0.0098991-0.0015182-0.0149612c-0.0005608-0.016758-0.0026436-0.0331802-0.0050049-0.0497704  c-0.0019684-0.014061-0.0037689-0.0280075-0.0069733-0.0416183c-0.0034866-0.014679-0.0084915-0.0287971-0.0133858-0.0430794  c-0.004837-0.014061-0.0093346-0.0281754-0.015522-0.0415611c-0.0061874-0.0137215-0.0139465-0.0265465-0.0214844-0.03965  c-0.0072556-0.0124283-0.0141144-0.0249138-0.022438-0.0365562c-0.0089989-0.0127106-0.0194016-0.0242958-0.0297508-0.0361061  c-0.0093918-0.0106277-0.0184479-0.0213127-0.0287933-0.0310974c-0.0109138-0.0103493-0.0229492-0.019516-0.0349808-0.0288506  c-0.0122604-0.0095062-0.0244102-0.0188408-0.037571-0.0271072c-0.0047226-0.0029259-0.0085487-0.0068054-0.013382-0.0096207  c-0.008213-0.0047226-0.0169868-0.0071983-0.0254211-0.0113602c-0.0141182-0.0070839-0.0282898-0.0138321-0.0432472-0.0194588  c-0.0146255-0.0055084-0.0293045-0.0097275-0.0441513-0.0136642c-0.0138321-0.0036545-0.0276108-0.0070877-0.041954-0.0095062  c-0.0171509-0.0028114-0.0341377-0.0042152-0.0513458-0.0051727c-0.0083809-0.0004501-0.0163078-0.0024757-0.0248032-0.0024757  h-4.2945557l-2.1472206-3.7192268l-2.1472206-3.7190018l2.1472206-3.7192268  c0.127552-0.2206841,0.0518532-0.503231-0.1690559-0.6307793c-0.2207947-0.1271019-0.503231-0.0517426-0.6306686,0.1691666  l-2.2805099,3.9500351c-0.0824471,0.1428452-0.0824471,0.3187637,0,0.4616127l2.2805099,3.9498062l2.2805099,3.9500351  c0.0020218,0.0034866,0.0051155,0.0059052,0.0071983,0.0093346c0.0194016,0.0316658,0.0412788,0.0614166,0.0674858,0.0873985  c0.0034294,0.0034866,0.0075378,0.0058479,0.0110779,0.0091095c0.022892,0.0213699,0.0479736,0.0400429,0.0748558,0.0564651  c0.0097847,0.0059052,0.0196838,0.0109673,0.0298653,0.01614c0.0229988,0.0118103,0.0469589,0.0213699,0.0720406,0.0292435  c0.0102348,0.0032082,0.0200233,0.0069733,0.0304832,0.009449c0.0325623,0.0077629,0.0661354,0.0126534,0.1010056,0.0131035  c0.0021362,0,0.0041618,0.0007896,0.0062981,0.0007896c0.0005646,0,0.0011253-0.0002251,0.0017433-0.0002251h3.7593269  l-1.8808708,3.2576141l-2.1472244,3.7192268h-3.4948311l1.8807602-3.2576141c0.0824471-0.142849,0.0824471-0.3187675,0-0.4616127  l-2.2805099-3.9500351l-2.2805099-3.9500351c-0.0025291-0.0043869-0.006073-0.0078163-0.0087166-0.012146  c-0.0088844-0.014286-0.0189514-0.0275574-0.0293007-0.0407181c-0.0087738-0.0111923-0.0173225-0.0223846-0.0268822-0.0325623  c-0.0102348-0.0108528-0.0214844-0.0204163-0.0327301-0.0302582c-0.0114174-0.0099525-0.0225525-0.0199623-0.0347595-0.0286255  c-0.0119209-0.0085487-0.0247421-0.0156326-0.0374527-0.0229454c-0.012825-0.0074234-0.0254784-0.0150146-0.0389175-0.0211449  c-0.0135536-0.0061874-0.0277252-0.0107422-0.041954-0.0156364c-0.0141754-0.004837-0.0281792-0.0097847-0.0427437-0.0132713  c-0.0136642-0.0032043-0.027668-0.0049477-0.041729-0.0069733c-0.0165367-0.0023613-0.0329018-0.0044441-0.0496597-0.0050049  c-0.0051193-0.0001678-0.0098419-0.0015182-0.0150146-0.0015182h-3.7615204l1.8807602-3.2573891l2.2806206-3.9500351  l2.1472206-3.7192268h4.027813l2.0139923,3.4884224l-2.1472206,3.7192268c-0.0824471,0.1428452-0.0824471,0.3187637,0,0.4616127  l2.2805099,3.9498062c0.0854836,0.1482506,0.2407036,0.2310333,0.4003105,0.2310333  c0.0782852,0,0.1576958-0.0200195,0.2304688-0.062088c0.2207985-0.127327,0.2964935-0.409874,0.1689453-0.630558  l-2.1472244-3.7190018l2.0139923-3.4884186h4.2932053c0.000618,0,0.0011826,0.0002251,0.0017433,0.0002251  c0.0005646,0,0.0011253-0.0002251,0.0017433-0.0002251h8.8533821l2.1472244,3.7192268  c0.0854836,0.1482468,0.2407036,0.2310295,0.4003105,0.2310295c0.0782852,0,0.1576958-0.0200195,0.2303581-0.0618629  c0.2209091-0.1275482,0.2966042-0.4100952,0.1690559-0.6307793l-2.2805099-3.9500351  c-0.002533-0.0043869-0.006073-0.0078163-0.0087166-0.012146c-0.0088882-0.014286-0.0189552-0.0275574-0.0293007-0.0407181  c-0.0087738-0.0111923-0.0173225-0.0223846-0.0268822-0.0325623c-0.0102386-0.0108566-0.0214844-0.0204163-0.0327339-0.0302582  c-0.0114174-0.0099525-0.0225525-0.0199661-0.0347557-0.0286255c-0.0119209-0.0085487-0.0247459-0.0156364-0.0374565-0.0229454  c-0.0128212-0.0074234-0.0254745-0.0150146-0.0389175-0.0211449c-0.0135536-0.0061874-0.0277252-0.0107422-0.041954-0.0156364  c-0.0141716-0.004837-0.0281754-0.0097847-0.0427399-0.0132713c-0.0136681-0.0032082-0.0276718-0.0049515-0.041729-0.0069733  c-0.0165367-0.0023651-0.0329018-0.0044441-0.0496597-0.0050049c-0.0051193-0.0001717-0.0098419-0.0015221-0.0150185-0.0015221  h-8.8555756l-2.1472206-3.7192249l-2.1473351-3.7192268l2.1473351-3.7192268l2.2805099-3.9500332  c0.127552-0.2206841,0.0518532-0.503231-0.1690559-0.6307831c-0.2207947-0.1273251-0.503231-0.0517406-0.6306686,0.1691685  l-2.2805099,3.9500332l-2.2806206,3.9500351c-0.0024757,0.0042744-0.0036583,0.0089417-0.0059624,0.0132713  c-0.0080986,0.0150719-0.0146217,0.0305939-0.0209236,0.0463409c-0.0052299,0.0130482-0.0106277,0.0258713-0.0146217,0.0391426  c-0.0042725,0.0143986-0.0069733,0.0290203-0.0098953,0.0438118c-0.0028687,0.0147343-0.0059624,0.0293007-0.0074234,0.0441475  c-0.0014076,0.014679-0.0011253,0.0293007-0.0011253,0.0440922s-0.0002823,0.0294132,0.0011253,0.0440922  c0.001461,0.0148468,0.0045547,0.0294132,0.0074234,0.0441475c0.0029221,0.0147915,0.0056229,0.0294132,0.0098953,0.0438099  c0.003994,0.0132732,0.0093918,0.0260963,0.0146217,0.0391426c0.0063019,0.0157471,0.012825,0.0312691,0.0209236,0.0463409  c0.0023041,0.0043316,0.0034866,0.0089989,0.0059624,0.0132732l2.2806206,3.9500332l1.8807602,3.2576122h-3.4949455  l-2.1472206-3.7192249c-0.002533-0.0043869-0.006073-0.0078182-0.0087166-0.0121479  c-0.0088882-0.0142841-0.0189552-0.0275574-0.0293007-0.0407181c-0.0087738-0.0111904-0.0173225-0.0223827-0.0268822-0.0325623  c-0.0102386-0.0108547-0.0214844-0.0204144-0.0327339-0.0302563c-0.0114174-0.0099545-0.0225525-0.0199661-0.0347557-0.0286255  c-0.0119209-0.0085487-0.0247459-0.0156345-0.0374565-0.0229454c-0.0128212-0.0074253-0.0254745-0.0150166-0.0389175-0.0211468  c-0.0135536-0.0061874-0.0277252-0.0107422-0.041954-0.0156345c-0.0141716-0.004837-0.0281754-0.0097866-0.0427399-0.0132732  c-0.0136681-0.0032043-0.0276718-0.0049477-0.0417328-0.0069733c-0.0165329-0.0023613-0.0328979-0.0044422-0.0496559-0.0050049  c-0.0051193-0.0001698-0.0098419-0.0015182-0.0150185-0.0015182h-3.7614059l1.8807602-3.2576141l2.2805099-3.9500332  l2.2805099-3.9500332l2.2806206-3.9500341l1.8806458-3.2572765l1.8806496,3.2572765l2.1472206,3.7192259l-2.1472206,3.7192268  l-2.2805099,3.9500351c-0.127552,0.2206821-0.0518532,0.5032291,0.1690559,0.6307812  c0.0726585,0.0418415,0.1520691,0.0618629,0.2303543,0.0618629c0.1596107,0,0.3148308-0.0827847,0.4003143-0.2310314  l2.2805099-3.9500332l1.8806458-3.2574444l1.8806458,3.2574444l2.2806244,3.9500332l1.8807602,3.2576141h-3.4949455  l-2.1472206-3.7192268c-0.0043335-0.0075359-0.0101814-0.0134983-0.0148468-0.0206966  c-0.0092239-0.0141716-0.0187302-0.027895-0.029583-0.0410557c-0.0095634-0.0117531-0.0198517-0.0223827-0.030426-0.0329552  c-0.0103493-0.0103493-0.020752-0.0204163-0.0321693-0.029808c-0.0132713-0.01091-0.0271645-0.0204697-0.0413933-0.0298061  c-0.0071411-0.0046673-0.0131035-0.0105171-0.0206375-0.0148468c-0.0043869-0.0025311-0.0091133-0.0037117-0.0135536-0.0060749  c-0.014904-0.0079861-0.0302582-0.0143967-0.0458946-0.0206947c-0.0130463-0.0052319-0.0259819-0.0106869-0.0393105-0.0146236  c-0.0144539-0.0043297-0.0291328-0.0070858-0.0439796-0.0099545c-0.0146217-0.0028667-0.029129-0.0059605-0.0438652-0.0073662  c-0.014679-0.0014057-0.0293579-0.0011253-0.0442047-0.0011806c-0.0147896,0.0000553-0.0294685-0.0002251-0.0441475,0.0011806  c-0.0147896,0.0014057-0.0293007,0.0044994-0.0440369,0.0073662c-0.0147324,0.0029259-0.0293541,0.0056248-0.0437546,0.0098991  c-0.0134392,0.0039921-0.026432,0.0095043-0.0396461,0.0147915c-0.0154686,0.0061855-0.0307083,0.0125961-0.0454979,0.0204697  c-0.0045013,0.0024185-0.0092812,0.0035992-0.0137253,0.0061874c-0.0075912,0.0043869-0.013607,0.0102921-0.0209198,0.0150719  c-0.014061,0.0091667-0.0277824,0.018671-0.0409431,0.0294685c-0.011528,0.0095043-0.0221024,0.0196838-0.032505,0.0301456  c-0.0104599,0.0104599-0.0206413,0.020977-0.030201,0.0326176c-0.0108528,0.0131607-0.0204163,0.0269966-0.0296364,0.0412235  c-0.0046692,0.0072002-0.0105171,0.0131054-0.0148468,0.0206413l-2.2805099,3.9500332  c-0.127552,0.2206841-0.0518532,0.503231,0.1690559,0.6307812c0.0726585,0.0418415,0.1520691,0.0618629,0.2303543,0.0618629  c0.1596069,0,0.3148308-0.0827847,0.4003143-0.2310314l1.8806458-3.2574444l1.8806458,3.2574444  c0.0020256,0.0034866,0.0051193,0.0059052,0.0071983,0.0093365c0.0194054,0.031662,0.0412827,0.0614128,0.0674896,0.0873966  c0.0034294,0.0034866,0.007534,0.0058479,0.0110779,0.0091095c0.022892,0.0213718,0.0479736,0.0400429,0.0748558,0.0564651  c0.0097847,0.0059052,0.0196838,0.0109673,0.0298615,0.01614c0.0230026,0.0118103,0.0469627,0.0213718,0.0720444,0.0292454  c0.0102348,0.0032043,0.0200195,0.0069733,0.0304832,0.0094471c0.0325623,0.007761,0.0661354,0.0126553,0.1010056,0.0131054  c0.0021362,0,0.0041618,0.0007858,0.0062981,0.0007858c0.0005608,0,0.0011253-0.0002251,0.0017433-0.0002251h4.2923622  l2.1472244,3.7192268l2.1472168,3.7192268l-2.0139313,3.4881973H59.38871l-2.1473351-3.7190018  c-0.1274376-0.2209091-0.4096451-0.2967224-0.6307793-0.1689453c-0.2207947,0.127327-0.2964935,0.409874-0.1689453,0.630558  l2.2806244,3.9498062c0.0020256,0.0034904,0.0051155,0.0059052,0.0071983,0.0093384  c0.0194016,0.031662,0.0412788,0.0614128,0.0674858,0.0873947c0.0034332,0.0034866,0.0075378,0.0058479,0.0110817,0.0091095  c0.0228882,0.0213737,0.0479698,0.0400429,0.074852,0.0564651c0.0097885,0.0059052,0.0196838,0.0109673,0.0298653,0.01614  c0.0230026,0.0118103,0.0469589,0.0213737,0.0720406,0.0292473c0.0102386,0.0032043,0.0200233,0.0069733,0.0304832,0.009449  c0.0325623,0.0077591,0.0661354,0.0126534,0.1010056,0.0131035c0.0021362,0,0.0041618,0.0007858,0.0062981,0.0007858  c0.0005646,0,0.0011253-0.0002251,0.0017433-0.0002251h4.2922516l2.1472244,3.7192268l2.2805099,3.9500351  c0.0854797,0.1482468,0.2406998,0.2310295,0.4003067,0.2310295c0.0782852,0,0.1576996-0.0200195,0.2303619-0.0618629  c0.2209091-0.127552,0.296608-0.410099,0.1690521-0.6307793l-2.2805099-3.9500351l-2.1472168-3.7192268l1.7473526-3.0264702  l1.8806534,3.2572746l2.2806168,3.9500351l2.2805099,3.9500351l2.2805099,3.9500313l2.2805099,3.9500351l1.8807602,3.2576141  h-7.5228119l1.8807602-3.2576141c0.002533-0.0043869,0.0037079-0.0090561,0.006073-0.0134964  c0.0079269-0.0148468,0.0143967-0.0302582,0.0206985-0.0458374c0.0052872-0.0131607,0.0107422-0.0261497,0.0147324-0.0395355  c0.0042725-0.014286,0.0069733-0.0288506,0.0098419-0.0435295c0.0029221-0.0147896,0.0060196-0.0294685,0.0074768-0.0443153  c0.0014114-0.014679,0.0011292-0.0293007,0.0011292-0.0440941c0-0.0147896,0.0002823-0.0294113-0.0011292-0.0440903  c-0.0014572-0.0148468-0.0045547-0.0295258-0.0074768-0.0443153c-0.0028687-0.014679-0.0055695-0.0292473-0.0098419-0.0435295  c-0.0039902-0.0133858-0.0094452-0.0263786-0.0147324-0.0395393c-0.0063019-0.0155754-0.0127716-0.0309868-0.0206985-0.0458336  c-0.0023651-0.0044441-0.00354-0.0091095-0.006073-0.0134964l-2.2805099-3.9500351  c-0.002533-0.0043869-0.006073-0.0078163-0.0087204-0.012146c-0.0088806-0.0142288-0.018898-0.0274467-0.0292435-0.0406075  c-0.0088272-0.0112457-0.0173798-0.0224953-0.0269928-0.0327301c-0.0101776-0.0107994-0.0213699-0.0203018-0.0325623-0.0300865  c-0.0114746-0.0099564-0.0226669-0.0200806-0.0349274-0.0287971c-0.0118637-0.0084915-0.0245743-0.0154648-0.0371704-0.0227776  c-0.0129395-0.0074768-0.02565-0.0151253-0.0391998-0.0212555c-0.013443-0.0061302-0.0275574-0.010685-0.0416718-0.0155792  c-0.0142899-0.0048943-0.0283508-0.0098419-0.0430298-0.0133286c-0.0136032-0.0032043-0.0275574-0.0050049-0.0415573-0.0069733  c-0.0165939-0.0023613-0.0330124-0.0044441-0.0497742-0.0050049c-0.0051193-0.0001717-0.0098419-0.0015182-0.0150146-0.0015182  h-4.2945557l-2.1472244-3.7192268l-2.2805061-3.9500351c-0.002533-0.0044441-0.0060768-0.0078735-0.0087738-0.0121498  c-0.008831-0.014225-0.0187836-0.0273323-0.0290184-0.0404358c-0.0088882-0.0113602-0.0176048-0.0227737-0.0273323-0.033123  c-0.0099564-0.0104599-0.0208664-0.0197983-0.0317764-0.0293579c-0.0117531-0.0102921-0.0232849-0.0206413-0.0359383-0.029583  c-0.0113602-0.008152-0.0236206-0.0149002-0.0358238-0.0219879c-0.0133858-0.0077629-0.0265465-0.0156364-0.0405502-0.0219917  c-0.0130463-0.0059586-0.0266571-0.0102882-0.0402641-0.0150146c-0.0147934-0.0051155-0.0293579-0.0102348-0.0445442-0.0137787  c-0.0131607-0.0031471-0.0266571-0.004837-0.0401535-0.0067482c-0.0170403-0.0024757-0.0339127-0.004612-0.051178-0.0051727  c-0.0049515-0.0001717-0.0095596-0.0014648-0.0145111-0.0014648h-4.2945557l-2.1472206-3.7192268  c-0.002533-0.0043869-0.0060768-0.0078735-0.0087204-0.012146c-0.0088844-0.0142288-0.018837-0.0273895-0.0291862-0.040493  c-0.0087738-0.0113029-0.0174332-0.0226097-0.0271072-0.0329018c-0.0101242-0.0107384-0.0212593-0.0201874-0.0323944-0.0299187  c-0.0114746-0.0100098-0.0227203-0.0201874-0.035038-0.0289612c-0.0118675-0.0084381-0.0245743-0.0154114-0.0372314-0.0227776  c-0.0129318-0.0074234-0.025589-0.0150719-0.0390854-0.0212021c-0.0135536-0.0061874-0.0277252-0.0107422-0.0418968-0.0156364  c-0.0142288-0.004837-0.0282326-0.0097847-0.0427971-0.0132713c-0.0136681-0.0032043-0.0276718-0.0050049-0.0417862-0.0069733  c-0.0164795-0.0023613-0.0329018-0.0044441-0.0496063-0.0050049c-0.0051155-0.0001678-0.0098419-0.0015182-0.0150146-0.0015182  h-4.294445l-1.7474709-3.0265846h3.7614059c0.2549896,0,0.4617271-0.2065086,0.4617271-0.4616127  c0-0.2551003-0.2067375-0.4616127-0.4617271-0.4616127h-4.5610199c-0.0082092,0-0.0158005,0.0019684-0.0238991,0.0024185  c-0.0176048,0.0009003-0.035038,0.0023041-0.0525856,0.0052872c-0.0142288,0.0024185-0.0278931,0.0057907-0.0416183,0.009449  c-0.0147324,0.0039368-0.0292435,0.0080986-0.0436401,0.0135536c-0.0158043,0.0059052-0.0307083,0.012989-0.0456085,0.0205269  c-0.0077629,0.0039368-0.0159187,0.0062408-0.0235672,0.0106277c-0.0044403,0.0025864-0.0078735,0.006073-0.012146,0.0087738  c-0.0141716,0.008831-0.0273323,0.0187836-0.0404358,0.0290184c-0.0113029,0.008831-0.0225525,0.017437-0.0328445,0.0271072  c-0.0107994,0.0102386-0.020359,0.0214272-0.0301437,0.0326195c-0.0099564,0.0114174-0.0199661,0.0225525-0.0286827,0.0347557  c-0.0085487,0.0119247-0.0155792,0.0247459-0.0230026,0.0374565c-0.0074234,0.0128784-0.0150146,0.0254784-0.0211449,0.0389175  c-0.0061302,0.0135536-0.0107422,0.0277252-0.0155792,0.0419006c-0.0048943,0.0141716-0.0098419,0.0282288-0.0133286,0.0427971  c-0.0032043,0.0136642-0.0050049,0.027668-0.0069733,0.041729c-0.0023613,0.0165329-0.0044441,0.0329552-0.0050049,0.0497169  c-0.0001678,0.0050621-0.0015182,0.0098419-0.0015182,0.0149574c0,0.0087738,0.002079,0.0168724,0.0025864,0.0255356  c0.0009003,0.0168152,0.0022507,0.0334587,0.0050621,0.0502205c0.0024719,0.0147896,0.0059624,0.0290184,0.0097847,0.0432472  c0.0038261,0.014286,0.0078735,0.0284004,0.0131607,0.0424614c0.0059624,0.0159149,0.0131607,0.0309868,0.0208092,0.0460587  c0.0038223,0.0076485,0.006073,0.0157471,0.0104599,0.0232849l2.2805099,3.9498062  c0.0020256,0.0034904,0.0051155,0.0059052,0.0071983,0.0093384c0.0194016,0.031662,0.0412788,0.0614128,0.0674858,0.0873947  c0.0034332,0.0034866,0.0075378,0.0058479,0.0110817,0.0091095c0.0228882,0.0213737,0.0479698,0.0400429,0.074852,0.0564651  c0.0097885,0.0059052,0.0196838,0.0109673,0.0298653,0.01614c0.0230026,0.0118103,0.0469589,0.0213737,0.0720406,0.0292473  c0.0102386,0.0032043,0.0200233,0.0069733,0.0304832,0.009449c0.0325623,0.0077591,0.0661392,0.0126534,0.1010056,0.0131035  c0.0021362,0,0.0041618,0.0007858,0.0062981,0.0007858c0.0005646,0,0.0011253-0.0002251,0.0017433-0.0002251h4.2922516  l2.1472206,3.7192268c0.0020256,0.0034866,0.0051193,0.0059052,0.0071983,0.0093346  c0.0194054,0.0316658,0.0412827,0.0614166,0.0674896,0.0873985c0.0034294,0.0034866,0.007534,0.0058479,0.0110779,0.0091095  c0.022892,0.0213699,0.0479736,0.0400429,0.0748558,0.0564651c0.0097847,0.0059052,0.0196838,0.0109673,0.0298615,0.01614  c0.0230026,0.0118103,0.0469627,0.0213699,0.0720444,0.0292435c0.0102348,0.0032082,0.0200195,0.0069733,0.0304832,0.009449  c0.0325623,0.0077629,0.0661354,0.0126534,0.1010056,0.0131035c0.0021362,0,0.0041618,0.0007896,0.0062981,0.0007896  c0.0005608,0,0.0011253-0.0002251,0.0017433-0.0002251h4.2923622l2.1472244,3.7192268l2.2805099,3.9500313  c0.0020218,0.0034866,0.0051117,0.0059052,0.0071945,0.0093384c0.0194016,0.031662,0.0412827,0.0614128,0.0674896,0.0873947  c0.0034332,0.0034866,0.0075378,0.0058479,0.0110779,0.0091095c0.0228882,0.0213737,0.0479736,0.0400429,0.074852,0.0564651  c0.0097885,0.0059052,0.0196838,0.0109673,0.0298691,0.01614c0.0230026,0.0118103,0.0469589,0.0213737,0.0720367,0.0292473  c0.0102386,0.0032043,0.0200272,0.0069733,0.0304871,0.0094452c0.0325623,0.0077629,0.0661392,0.0126572,0.1010056,0.0131035  c0.0021362,0,0.004158,0.0007896,0.0062943,0.0007896c0.0005646,0,0.0011292-0.0002251,0.0017471-0.0002251h4.292366  l2.0139313,3.4884186l-2.1472244,3.7192268l-2.2806168,3.9498138c-0.0824509,0.1428452-0.0824509,0.3187637,0,0.4616089  l2.2806168,3.9500351l2.2805099,3.9500351c0.0854874,0.1482468,0.2407074,0.2310257,0.4003143,0.2310257  c0.0782852,0,0.157692-0.0200195,0.2303543-0.0618591c0.2209091-0.1275482,0.296608-0.4100952,0.1690598-0.6307831  l-2.2805099-3.9500351l-2.1473389-3.719223l2.0140533-3.4881973h8.5888824l2.1473389,3.7190018l2.2805099,3.9500351  l1.8807602,3.2576141h-3.4948349l-2.1473312-3.7192307c-0.002533-0.0043869-0.0060806-0.0078735-0.0087204-0.012146  c-0.0088882-0.0142288-0.018898-0.0273895-0.0291901-0.0405502c-0.0088272-0.0112991-0.0174332-0.0226059-0.0271606-0.0328979  c-0.0100098-0.0105743-0.0209808-0.0199661-0.0319443-0.0295792c-0.0116959-0.0102386-0.0232239-0.0205841-0.0357666-0.0294724  c-0.0113068-0.0080414-0.0233383-0.014679-0.0353775-0.0217056c-0.0136642-0.0079346-0.0271072-0.015976-0.0413895-0.0224457  c-0.0125427-0.0056763-0.02565-0.0098953-0.0386963-0.0144501c-0.0153503-0.0054016-0.0305405-0.0106888-0.0463409-0.0143967  c-0.0124817-0.0029221-0.0253067-0.0045013-0.0382385-0.0064087c-0.017662-0.0025864-0.0352097-0.0047836-0.0531464-0.0053482  c-0.0047302-0.0001678-0.0091171-0.0014038-0.0138931-0.0014038h-4.2944489l-1.747467-3.0268097h3.7614059  c0.2549896,0,0.4617233-0.2065048,0.4617233-0.4616089s-0.2067337-0.4616165-0.4617233-0.4616165h-4.5610199  c-0.0087204,0-0.0168686,0.0020828-0.0254745,0.0025864c-0.0168762,0.0009003-0.033577,0.0022507-0.0503922,0.0050659  c-0.0145645,0.0024185-0.028511,0.0058441-0.042572,0.009613c-0.014679,0.0038834-0.0291367,0.0080414-0.0435333,0.0134964  c-0.0151825,0.0056839-0.0296326,0.0125427-0.0440292,0.0197449c-0.0081558,0.0041046-0.0167618,0.0065231-0.0248032,0.0111313  c-0.0047226,0.0027542-0.0084381,0.0065231-0.0130463,0.0093918c-0.0135574,0.0084915-0.0261002,0.0180588-0.0386429,0.0278397  c-0.0117493,0.0091095-0.0234451,0.0180511-0.0341339,0.0281219c-0.0105209,0.0100098-0.0198517,0.0209198-0.0294724,0.0318832  c-0.0101242,0.0115891-0.0203018,0.0228958-0.029129,0.0353241c-0.0084915,0.0118637-0.0155258,0.0245743-0.0228348,0.0372849  c-0.0074234,0.0128784-0.0150681,0.0255356-0.0212021,0.039032c-0.0061874,0.0134964-0.0107956,0.0277252-0.0156937,0.041954  c-0.0048294,0.0141678-0.0097809,0.0281219-0.0132675,0.0427399c-0.0032043,0.0136108-0.0050049,0.0276108-0.0069733,0.0417328  c-0.0023651,0.0165329-0.0044479,0.0329514-0.0050049,0.0497131c-0.0001678,0.0050583-0.0015182,0.0098419-0.0015182,0.0149612  c0,0.0087738,0.0020752,0.0169296,0.0025864,0.025528c0.0009003,0.0168152,0.0022507,0.0334625,0.0050583,0.0502243  c0.0024796,0.0147934,0.0059662,0.0290222,0.0097885,0.043251c0.0038223,0.0142822,0.0078735,0.0283966,0.0131607,0.0424576  c0.0059586,0.0159149,0.0131607,0.0309906,0.0208054,0.0460587c0.0038223,0.0076523,0.006073,0.0157471,0.0104599,0.0232849  l2.2805099,3.9500351c0.0020294,0.0034866,0.0051193,0.0059052,0.0072021,0.0093384  c0.0194016,0.031662,0.041275,0.061409,0.067482,0.0873947c0.0034332,0.0034866,0.0075378,0.0058441,0.0110855,0.0091095  c0.0228882,0.0213699,0.047966,0.0400391,0.074852,0.0564651c0.0097885,0.0059052,0.0196838,0.0109634,0.0298615,0.0161362  c0.0230026,0.0118103,0.0469589,0.0213776,0.0720444,0.0292511c0.0102386,0.0032043,0.0200195,0.0069733,0.0304794,0.0094452  c0.0325623,0.0077591,0.0661392,0.0126572,0.1010056,0.0130997c0.0021362,0,0.0041656,0.0007935,0.0063019,0.0007935  c0.0005646,0,0.0011215-0.0002289,0.0017395-0.0002289h4.2922516l2.0140457,3.4884186l-2.1473312,3.7192307  c-0.0043335,0.0075378-0.0065765,0.0155792-0.0104599,0.0232239c-0.0076523,0.0150757-0.0147934,0.0302048-0.0208054,0.0461197  c-0.0052872,0.014061-0.0093384,0.0281219-0.0131607,0.0424042c-0.00383,0.0142822-0.0073166,0.028511-0.0097885,0.0433044  c-0.0028152,0.0167618-0.004158,0.0334091-0.0050583,0.0502243c-0.0005112,0.0086594-0.0025864,0.0167542-0.0025864,0.025528  c0,0.0051193,0.0013428,0.009903,0.0015182,0.0149612c0.0005569,0.0167618,0.0026398,0.0331802,0.0050049,0.0497131  c0.0019684,0.014061,0.0037613,0.0280685,0.0069733,0.0417328c0.0034866,0.0146255,0.0084305,0.0286255,0.0133286,0.0428543  c0.0048904,0.0141754,0.0093918,0.0282898,0.0155792,0.0417862c0.0061264,0.0134964,0.0137787,0.0260925,0.0212021,0.0389709  c0.0073624,0.0127716,0.0144501,0.0255356,0.0229416,0.0374603c0.0087204,0.0121994,0.0187302,0.0233383,0.0286865,0.0347519  c0.0097809,0.0111923,0.0193405,0.0223846,0.0301437,0.0326233c0.0102921,0.0096741,0.0215378,0.0182724,0.0328445,0.0271072  c0.0130997,0.010231,0.026207,0.0201874,0.0403748,0.0290146c0.0043335,0.0027008,0.0077591,0.0061874,0.012207,0.0087738  c0.005394,0.0031509,0.0113602,0.0040512,0.0168152,0.0069733c0.0245209,0.0129395,0.0501633,0.0234528,0.0770493,0.0318909  c0.0101776,0.0032043,0.0200729,0.0069199,0.030426,0.0093918c0.0312653,0.0074234,0.0635452,0.0119247,0.0969543,0.0126572  c0.0030899,0.0000534,0.0061874,0.0011749,0.0092239,0.0011749c0.0005646,0,0.0011215-0.0002213,0.0017395-0.0002213h4.5598373  c0.2549896,0,0.461731-0.2065125,0.461731-0.4616165s-0.2067413-0.4616089-0.461731-0.4616089h-3.7615128l1.7475815-3.0268097  h4.0278702l2.1472244,3.7192307l2.2805023,3.9500275l2.2806244,3.9500351l1.8807602,3.2573929h-3.4949417l-2.1472244-3.7190018  l-2.2805099-3.9500351c-0.002533-0.0043869-0.006073-0.0078201-0.0087128-0.012146  c-0.0088882-0.0142899-0.018959-0.0275574-0.0293045-0.0407181c-0.0087738-0.0111923-0.0173187-0.0223846-0.0268784-0.0325623  c-0.0102386-0.0108566-0.0214844-0.0204163-0.0327377-0.0302582c-0.0114136-0.0099564-0.0225525-0.0199661-0.0347519-0.0286255  c-0.0119247-0.0085526-0.0247498-0.0156403-0.0374603-0.0229492c-0.0128174-0.0074234-0.0254745-0.0150146-0.0389175-0.0211487  c-0.0135498-0.0061798-0.0277252-0.0107346-0.041954-0.0156326c-0.0141678-0.004837-0.0281754-0.0097809-0.0427399-0.0132675  c-0.0136642-0.003212-0.0276718-0.0049515-0.0417252-0.0069733c-0.0165405-0.0023651-0.0329056-0.0044479-0.0496597-0.0050125  c-0.0051193-0.0001678-0.0098419-0.0015182-0.0150223-0.0015182h-9.1221466c-0.0051727,0-0.0098953,0.0013504-0.0150146,0.0015182  c-0.0167618,0.0005646-0.0331268,0.0026474-0.0496597,0.0050125c-0.014061,0.0020218-0.0280685,0.0037613-0.0417328,0.0069733  c-0.0145645,0.0034866-0.0285721,0.0084305-0.0427399,0.0132675c-0.0142288,0.0048981-0.0284042,0.0094528-0.041954,0.0156326  c-0.013443,0.006134-0.0261002,0.0137253-0.0389175,0.0211487c-0.0127106,0.007309-0.0255356,0.0143967-0.0374603,0.0229492  c-0.0121994,0.0086594-0.0233383,0.0186691-0.0347519,0.0286255c-0.0112457,0.0098419-0.0224991,0.0194016-0.0327301,0.0302582  c-0.0095596,0.0101776-0.0181122,0.0213699-0.026886,0.0325623c-0.0103455,0.0131607-0.0204163,0.0264282-0.0292969,0.0407181  c-0.0026474,0.0043259-0.0061874,0.0077591-0.0087204,0.012146l-2.1472244,3.719223h-4.2944412  c-0.2549896,0-0.4617233,0.2065125-0.4617233,0.4616165s0.2067337,0.4616089,0.4617233,0.4616089h4.5588226  c0.0006256,0,0.0011826,0.0002289,0.0017471,0.0002289c0.0021362,0,0.004158-0.0007858,0.0063019-0.0007858  c0.0348663-0.0004501,0.0684433-0.0053482,0.1010056-0.0131073c0.0104599-0.0024719,0.0202408-0.0062408,0.0304794-0.0094452  c0.0250854-0.0078735,0.0490417-0.0174332,0.0720444-0.0292435c0.0101776-0.0051804,0.0200729-0.0102386,0.0298615-0.0161438  c0.026886-0.0164185,0.0519638-0.0350952,0.074852-0.0564651c0.0035477-0.0032578,0.0076523-0.0056229,0.0110779-0.0091095  c0.0262146-0.0259857,0.0480881-0.0557327,0.0674896-0.0873947c0.0020828-0.0034332,0.0051727-0.0058517,0.0072021-0.0093384  l2.1472168-3.719223h4.0279846l2.1472244,3.719223c0.0854797,0.1482468,0.2406998,0.2310333,0.4003067,0.2310333  c0.0782852,0,0.1576996-0.0200195,0.2303619-0.0618668c0.2209091-0.1275482,0.296608-0.4100952,0.1690521-0.6307755  L82.727066,80.914299h3.4948349l2.1472244,3.719223l1.8807526,3.2573929h-8.0558472l-2.1473312-3.7190018  c-0.1274414-0.2209091-0.4096527-0.2969513-0.6307831-0.1689453c-0.2207947,0.127327-0.2964935,0.409874-0.1689453,0.6305542  l1.8808136,3.2573929H68.5107498l-2.1472244-3.7190018c-0.1274338-0.2209091-0.4096451-0.2969513-0.6307831-0.1689453  c-0.2207947,0.127327-0.2964935,0.409874-0.1689377,0.6305542l1.8807602,3.2573929H55.3606186l1.7474709-3.0265884h4.2945557  c0.2549896,0,0.4617271-0.2065048,0.4617271-0.4616089s-0.2067375-0.4616165-0.4617271-0.4616165h-4.5611305  c-0.0044975,0-0.0086594,0.0011826-0.0131607,0.0013504c-0.0187263,0.0005112-0.0370598,0.0027542-0.0555077,0.0055695  c-0.0120926,0.0018005-0.024128,0.0033188-0.0359383,0.0060196c-0.0165901,0.0038757-0.032505,0.0093918-0.0485916,0.0150681  c-0.0123711,0.0043869-0.0247421,0.0083237-0.0365524,0.0137253c-0.0149612,0.0067444-0.028965,0.0150681-0.0431366,0.0233917  c-0.0114746,0.006752-0.0230598,0.0130539-0.0338554,0.020752c-0.0129356,0.0091705-0.0248032,0.0197983-0.0368385,0.0303726  c-0.0106277,0.0093384-0.0212593,0.0184479-0.031044,0.0287399c-0.0098419,0.0104599-0.0186157,0.0219345-0.0276146,0.0334625  c-0.0101776,0.0129929-0.0200768,0.0260925-0.0288506,0.0401535c-0.002697,0.0043335-0.0061836,0.0077591-0.0087738,0.012207  l-2.1472206,3.7190018h-8.0559082l1.7475281-3.0265884h4.2922516c0.000618,0,0.0011826,0.0002289,0.0017433,0.0002289  c0.0021362,0,0.0041618-0.0007858,0.0062981-0.0007858c0.0348701-0.0004501,0.0684433-0.0053482,0.1010094-0.0131073  c0.0104599-0.0024719,0.0202446-0.0062408,0.0304794-0.0094452c0.0250816-0.0078735,0.0490417-0.0174332,0.0720444-0.0292435  c0.0101776-0.0051804,0.0200768-0.0102386,0.0298615-0.0161438c0.0268822-0.0164185,0.0519676-0.0350952,0.0748558-0.0564651  c0.0035439-0.0032578,0.0076485-0.0056229,0.0110779-0.0091095c0.026207-0.0259857,0.0480843-0.0557327,0.0674896-0.0873947  c0.002079-0.0034332,0.0051727-0.0058517,0.0071983-0.0093384l2.1472206-3.719223h4.2923622  c0.0006218,0,0.0011826,0.0002213,0.0017433,0.0002213c0.00214,0,0.0041618-0.0007858,0.0063019-0.0007858  c0.0348663-0.0004501,0.0684433-0.0053406,0.1010056-0.0131073c0.0104599-0.0024719,0.0202446-0.0062408,0.0304794-0.0094452  c0.0250854-0.0078735,0.0490417-0.0174332,0.0720444-0.0292435c0.0101776-0.0051727,0.0200768-0.0102386,0.0298615-0.0161438  c0.0268822-0.0164185,0.0519676-0.0350952,0.0748558-0.0564651c0.0035439-0.0032578,0.0076485-0.0056229,0.0110779-0.0091095  c0.0262108-0.0259781,0.0480843-0.0557327,0.0674896-0.0873947c0.002079-0.0034332,0.0051727-0.0058517,0.0071983-0.0093384  l2.1472206-3.719223h4.0278702l1.7474747,3.0268021h-3.7614098c-0.2549896,0-0.4617271,0.2065125-0.4617271,0.4616165  s0.2067375,0.4616165,0.4617271,0.4616165h4.5597267c0.000618,0,0.0011826,0.0002213,0.0017395,0.0002213  c0.0005646,0,0.0011292-0.0002213,0.0017471-0.0002213h4.5589371c0.2549896,0,0.4617233-0.2065125,0.4617233-0.4616165  s-0.2067337-0.4616165-0.4617233-0.4616165h-4.2945023l-2.0139923-3.4884186l1.7473602-3.0266342l1.8807602,3.2574463  c0.0020294,0.0034866,0.0051193,0.0059052,0.0072021,0.0093307c0.0194016,0.031662,0.041275,0.0614166,0.0674896,0.0873947  c0.0034256,0.0034866,0.0075302,0.0058517,0.0110779,0.0091171c0.0228882,0.0213699,0.0479736,0.0400391,0.074852,0.0564575  c0.0097885,0.0059052,0.0196838,0.0109711,0.0298615,0.0161438c0.0230026,0.0118103,0.0469589,0.0213699,0.0720444,0.0292435  c0.0102386,0.0032043,0.0200195,0.0069733,0.0304794,0.0094528c0.0325623,0.0077591,0.0661392,0.0126495,0.1010056,0.0130997  c0.0021439,0,0.0041656,0.0007858,0.0063019,0.0007858c0.0005646,0,0.0011215-0.0002213,0.0017471-0.0002213h4.5566254  c0.0006256,0,0.0011826,0.0002213,0.0017471,0.0002213c0.0021362,0,0.004158-0.0007858,0.0063019-0.0007858  c0.0348663-0.0004501,0.0684433-0.0053406,0.1010056-0.0130997c0.0104599-0.0024796,0.0202408-0.0062485,0.0304794-0.0094528  c0.0250854-0.0078735,0.0490417-0.0174332,0.0720444-0.0292435c0.0101776-0.0051727,0.0200729-0.0102386,0.0298615-0.0161438  c0.026886-0.0164185,0.0519638-0.0350876,0.074852-0.0564575c0.0035477-0.0032654,0.0076523-0.0056305,0.0110779-0.0091171  c0.0262146-0.0259781,0.0480881-0.0557327,0.0674896-0.0873947c0.0020828-0.0034256,0.0051727-0.0058441,0.0072021-0.0093307  l2.2805099-3.9500351c0.1275482-0.2206879,0.0518494-0.5032349-0.1690598-0.6307831  c-0.2207947-0.1270981-0.5032272-0.0517426-0.6306686,0.1691666l-2.1472244,3.7192307h-4.0278625l-2.1473389-3.7192307  c-0.0042725-0.0074768-0.0101242-0.013382-0.0147934-0.0205231c-0.0092773-0.0142899-0.0188904-0.028183-0.0298615-0.0415115  c-0.0093307-0.0113602-0.0193405-0.021759-0.0295792-0.0319977c-0.0106888-0.0107422-0.0214844-0.0211487-0.0334091-0.0308762  c-0.0126495-0.0104065-0.0259247-0.0195694-0.0395355-0.028511c-0.0075912-0.0049515-0.0138931-0.0111389-0.0218735-0.0157471  c-0.0046158-0.0027008-0.0096741-0.0039368-0.0143433-0.0064087c-0.0142822-0.0075989-0.0289612-0.0137253-0.0439224-0.0197449  c-0.0136108-0.0055084-0.0269928-0.0111313-0.0408325-0.0152359c-0.0141144-0.0042191-0.0284576-0.0068665-0.0429077-0.0096741  c-0.0149078-0.0029297-0.0296936-0.006073-0.0447083-0.0075378c-0.0146255-0.0014038-0.0293045-0.0011292-0.0440979-0.0011292  c-0.0147324,0-0.0293503-0.0002747-0.0439758,0.0011292c-0.0150757,0.0014648-0.0299225,0.0046082-0.0448761,0.0075378  c-0.0144043,0.0028076-0.0286255,0.005455-0.0426331,0.009613c-0.0141144,0.0041656-0.0277786,0.009903-0.0416183,0.0155258  c-0.0145645,0.0059052-0.0289612,0.0118637-0.0429077,0.0192337c-0.0048981,0.0025864-0.0100708,0.0039368-0.0149078,0.006691  c-0.0082092,0.004776-0.0148468,0.0111313-0.0226593,0.0163116c-0.0131073,0.0086594-0.0259857,0.01754-0.0382996,0.0276108  c-0.012207,0.0099564-0.0232849,0.0206985-0.0343094,0.0317154c-0.0099564,0.0100174-0.0196838,0.020134-0.0287933,0.0312195  c-0.0111389,0.0134964-0.0209198,0.0276108-0.0303726,0.0421753c-0.0045547,0.0069733-0.0102921,0.012825-0.0145035,0.020134  l-2.1472244,3.7192307h-4.294445c-0.0047226,0-0.0090523,0.001236-0.0137215,0.0014038  c-0.0179977,0.0005035-0.0355988,0.0027542-0.0533142,0.0053406c-0.0128784,0.001915-0.0257034,0.0034866-0.0382423,0.0064163  c-0.0158043,0.0037079-0.0309906,0.0089951-0.0463409,0.0143967c-0.0130501,0.0044937-0.0260963,0.0087128-0.0385818,0.0143967  c-0.0144539,0.0065231-0.0280075,0.0146179-0.0417862,0.0226059c-0.0118675,0.0069733-0.0237885,0.0134964-0.0349236,0.021431  c-0.0127678,0.0090485-0.0244102,0.0195084-0.036274,0.0299759c-0.0107994,0.0094452-0.0216522,0.0186691-0.0314941,0.0290756  c-0.0097885,0.0103989-0.0185051,0.0218201-0.0273895,0.0332336c-0.0102921,0.0131073-0.0202484,0.026207-0.0290184,0.0403824  c-0.0027008,0.0042725-0.0062447,0.0077057-0.0087738,0.012146l-2.1472244,3.719223h-4.0279808l-2.1472206-3.719223  c-0.127327-0.2211304-0.409874-0.2964935-0.6306686-0.1691666c-0.2209091,0.1275482-0.296608,0.4100952-0.1690559,0.6307831  l2.1472206,3.719223l-2.0139923,3.4884186h-4.027813l-2.1473312-3.719223l-2.1472244-3.7192307l2.1472244-3.719223  l2.1473312-3.7192307h8.8554649c0.2549896,0,0.4617271-0.2065125,0.4617271-0.4616089  c0-0.2551041-0.2067375-0.4616165-0.4617271-0.4616165H39.3969383l1.8807602-3.2576141l2.2805099-3.9498062l2.2805099-3.9500351  l2.2806206-3.9500351l1.8806458-3.2574425l1.8806496,3.2574425l2.2805099,3.9500351l2.2805061,3.9500351l2.2806244,3.9498062  l2.1472206,3.7192307l-2.0139885,3.4884186h-8.8555222c-0.0051727,0-0.0098953,0.0013504-0.0150146,0.0015182  c-0.016758,0.0005646-0.0331268,0.0026398-0.0496597,0.0050049c-0.014061,0.0020218-0.0280647,0.0037689-0.041729,0.0069733  c-0.0145683,0.0034866-0.0285683,0.0084381-0.0427437,0.0132751c-0.0142288,0.0048904-0.0284004,0.0094452-0.041954,0.0156326  c-0.0134392,0.0061264-0.0260963,0.0137253-0.0389175,0.0211487c-0.0127106,0.007309-0.0255318,0.0143967-0.0374565,0.0229416  c-0.0122032,0.0086594-0.0233383,0.0186691-0.0347557,0.0286255c-0.0112457,0.0098419-0.0224953,0.0194016-0.0327301,0.0302582  c-0.0095596,0.0101776-0.0181084,0.0213699-0.0268822,0.0325623c-0.0103493,0.0131607-0.0204163,0.0264359-0.0293007,0.0407181  c-0.0026436,0.0043335-0.0061874,0.0077591-0.0087166,0.012146l-2.2805099,3.9500351  c-0.0824471,0.1428452-0.0824471,0.3187637,0,0.4616165l2.2805099,3.9500275  c0.0854836,0.1482468,0.2407036,0.2310333,0.4003105,0.2310333c0.0782852,0,0.1576958-0.0200195,0.2303581-0.0618591  c0.2209091-0.1275558,0.296608-0.4101028,0.1690559-0.6307831l-2.1472244-3.7192307l2.0139923-3.4884186h8.0559082  l-1.8808746,3.2576141c-0.1275482,0.2206802-0.0518494,0.5032272,0.1689453,0.6305542  c0.072773,0.0420685,0.1521835,0.062088,0.2304688,0.062088c0.1596069,0,0.314827-0.0827789,0.4003105-0.2310257  l2.1473351-3.7192307h4.2922516c0.000618,0,0.0011826,0.0002213,0.0017433,0.0002213  c0.0021362,0,0.0041618-0.0007858,0.0062981-0.0007858c0.0348701-0.0004501,0.0684433-0.0053406,0.1010056-0.0130997  c0.0104637-0.0024796,0.0202484-0.0062408,0.0304832-0.0094528c0.0250816-0.0078735,0.0490417-0.0174332,0.0720444-0.0292435  c0.0101776-0.0051727,0.0200768-0.010231,0.0298615-0.0161362c0.0268822-0.0164261,0.0519638-0.0350952,0.0748558-0.0564651  c0.00354-0.0032654,0.0076447-0.0056229,0.0110779-0.0091095c0.026207-0.0259857,0.0480881-0.0557404,0.0674896-0.0874023  c0.0020752-0.0034256,0.0051727-0.0058441,0.0071945-0.0093307l2.2805099-3.9500351  c0.0824509-0.1428452,0.0824509-0.3187637,0-0.4616165l-2.1472168-3.719223l2.1472168-3.7190018l2.2805099-3.9500351  c0.0043869-0.0075378,0.0066376-0.0156364,0.0104599-0.0232849c0.0076523-0.0150719,0.0148468-0.0301437,0.020813-0.0460587  c0.0052872-0.014061,0.0093307-0.0281754,0.0131607-0.0424614c0.0038223-0.0142288,0.007309-0.0284576,0.0097809-0.0432472  c0.0028152-0.016758,0.0041656-0.0334053,0.0050659-0.0502205c0.0005035-0.008606,0.0025864-0.0167618,0.0025864-0.0255356  c0-0.0051155-0.0013504-0.0098953-0.0015182-0.0149574c-0.0005646-0.0167618-0.0026474-0.0331841-0.0050049-0.0497169  c-0.0019684-0.0141144-0.0037689-0.0281181-0.0069733-0.041729c-0.0034866-0.0146217-0.0084381-0.0285683-0.0132751-0.0427437  c-0.0048904-0.0142288-0.0095062-0.0284576-0.0156937-0.041954c-0.0061264-0.0134964-0.0137787-0.0261497-0.0212021-0.0390282  c-0.007309-0.0127106-0.0143356-0.0254211-0.0228348-0.0372887c-0.0088272-0.0124283-0.0190048-0.0237312-0.029129-0.0353165  c-0.009613-0.0109673-0.0189514-0.0218773-0.0294724-0.0318909c-0.0106812-0.0100632-0.022377-0.0190086-0.0341339-0.0281181  c-0.0125427-0.0097847-0.0250854-0.0193443-0.0386353-0.0278397c-0.0046158-0.0028687-0.0083237-0.0066338-0.0130463-0.0093918  c-0.0081024-0.0046654-0.0168152-0.0071411-0.0250854-0.0113029c-0.0141754-0.0070877-0.0282898-0.0137787-0.04319-0.0194016  c-0.0149612-0.0056267-0.0299225-0.0100098-0.0451584-0.0140038c-0.013443-0.0035439-0.0267715-0.0068626-0.0406647-0.0091667  c-0.0175476-0.0029831-0.0349808-0.0044441-0.0526428-0.0053444c-0.0080948-0.0003929-0.0158005-0.0024185-0.0240707-0.0024185  h-4.5610161c-0.004837,0-0.0093346,0.0012398-0.0141716,0.0014076c-0.0174904,0.0005608-0.0346451,0.0027542-0.0518532,0.0052299  c-0.013443,0.0019684-0.0267715,0.0036545-0.0398178,0.006691c-0.0150719,0.0036011-0.0296364,0.0087166-0.0443153,0.0137787  c-0.0137253,0.0047264-0.027504,0.0091667-0.0406075,0.0151291c-0.0137787,0.0062447-0.0266571,0.0140038-0.0398178,0.021595  c-0.0124817,0.0072556-0.0250816,0.0141716-0.0367775,0.0225525c-0.0123177,0.0087738-0.02351,0.0188408-0.0349808,0.0289078  c-0.0111923,0.0097313-0.0223846,0.0192337-0.0325661,0.0300331c-0.0096169,0.0102348-0.0181618,0.0214806-0.0269356,0.0326729  c-0.0103493,0.0132179-0.0204163,0.0263786-0.0293007,0.0406609c-0.0026436,0.0042763-0.0061874,0.0077629-0.0087166,0.0121498  l-2.2805099,3.9500313c-0.127552,0.2206841-0.0518532,0.503231,0.1690559,0.6307831  c0.0726585,0.0418434,0.1520691,0.0618629,0.2303543,0.0618629c0.1596069,0,0.3148308-0.0827827,0.4003143-0.2310295  l2.1472206-3.7192268h3.4948349l-1.8807602,3.2576103l-2.2805099,3.9498138c-0.0824471,0.1428452-0.0824471,0.3187637,0,0.4616089  l2.1472168,3.7192307l-2.0139885,3.4884186h-3.4947739l1.8807602-3.2576141c0.0824471-0.1428452,0.0824471-0.3187637,0-0.4616165  l-2.2805099-3.9500275l-2.1473351-3.7190056l2.1473351-3.7192268l2.2805099-3.9500351  c0.0025291-0.0043869,0.0037117-0.0090523,0.006073-0.0134964c0.0079308-0.0148468,0.0143967-0.0302582,0.0206947-0.0458336  c0.0052872-0.0131607,0.0107422-0.0261536,0.0147362-0.0395393c0.0042725-0.0142822,0.0069733-0.0288506,0.0098419-0.0435295  c0.0029259-0.0147896,0.0060158-0.0294685,0.0074806-0.0443153c0.0014038-0.014679,0.0011253-0.0293007,0.0011253-0.0440903  c0-0.0147934,0.0002785-0.0294151-0.0011253-0.0440941c-0.0014648-0.0148468-0.0045547-0.0295258-0.0074806-0.0443153  c-0.0028687-0.014679-0.0055695-0.0292435-0.0098419-0.0435295c-0.003994-0.0133858-0.009449-0.0263748-0.0147362-0.0395355  c-0.0062981-0.0155792-0.012764-0.0309868-0.0206947-0.0458374c-0.0023613-0.0044403-0.0035439-0.0091095-0.006073-0.0134964  l-2.2805099-3.9500313c-0.1274376-0.2209091-0.409874-0.2962723-0.6306686-0.1691704  c-0.2209091,0.127552-0.296608,0.410099-0.1690559,0.6307831l2.1472206,3.7192268l-1.7473602,3.026638l-1.8807602-3.2574463  c-0.1274376-0.2209091-0.4096451-0.2962685-0.6307793-0.1691666c-0.2207947,0.1275482-0.2964935,0.4100952-0.1689453,0.6307793  l2.1473351,3.7192268l-1.7474709,3.026638l-1.8806458-3.2574425l-2.1472244-3.7192268l2.1472244-3.7192268  c0.0824471-0.142849,0.0824471-0.3187675,0-0.4616127l-2.2805099-3.9500351  c-0.127327-0.2211342-0.409874-0.2962685-0.6306686-0.1691704c-0.2209091,0.127552-0.296608,0.410099-0.1690559,0.6307831  l2.1472206,3.7192268l-1.7473602,3.026638l-1.8806458-3.2574425c-0.0043297-0.0074806-0.0101242-0.013443-0.0148468-0.0205841  c-0.0092239-0.014286-0.0187836-0.0281219-0.0296936-0.0413361c-0.009449-0.0114746-0.0194588-0.0219345-0.029808-0.0322838  c-0.010685-0.0106277-0.0213699-0.020977-0.0331802-0.0306511c-0.0127106-0.0104599-0.0260391-0.0196266-0.03965-0.0285683  c-0.0075912-0.0049477-0.0139465-0.0111351-0.0218773-0.0157471c-0.0046692-0.0027008-0.0096741-0.0039368-0.0143967-0.0064659  c-0.0141716-0.0075378-0.0288506-0.0136108-0.0437546-0.0196304c-0.0136108-0.0055084-0.0271072-0.0111885-0.0410538-0.0153503  c-0.014061-0.0041618-0.0282898-0.0068054-0.0426865-0.0096169c-0.0150185-0.0029259-0.0298653-0.0060768-0.0449371-0.0075378  c-0.0146217-0.0014076-0.0292435-0.0011253-0.0439796-0.0011253c-0.0147324,0-0.0293541-0.0002823-0.0439796,0.0011253  c-0.0150719,0.001461-0.0299759,0.004612-0.0449905,0.0075378c-0.014286,0.0028114-0.0285683,0.005455-0.042572,0.0096169  s-0.0275574,0.0098419-0.0412788,0.0154076c-0.0147934,0.0059624-0.0293007,0.0120354-0.0434761,0.019516  c-0.0047226,0.0025291-0.0097847,0.0038223-0.0145073,0.0065231c-0.0080414,0.004612-0.0144539,0.01091-0.0221024,0.0159149  c-0.0134964,0.008831-0.0266571,0.0179405-0.0391998,0.0282326c-0.0119781,0.0098419-0.0228882,0.0203018-0.0336304,0.0311012  c-0.0101814,0.0102348-0.020134,0.0205269-0.0294151,0.0318298c-0.0109673,0.0133324-0.0206375,0.0272789-0.0299759,0.0416183  c-0.004612,0.0070877-0.0104599,0.0130463-0.0147324,0.0204735l-2.2805099,3.9500313l-2.1473351,3.7192268H27.1946659  c-0.004837,0-0.0093346,0.0012932-0.0141716,0.001461c-0.0175476,0.0005646-0.0347004,0.0027008-0.052021,0.0051765  c-0.0133305,0.0019684-0.0266018,0.0035973-0.0395927,0.006691c-0.0152416,0.0036011-0.0298634,0.0087166-0.0445976,0.0138359  c-0.0136681,0.0047226-0.027277,0.0091095-0.0403252,0.0150146c-0.013834,0.0063019-0.026825,0.0141182-0.0400982,0.0217667  c-0.012373,0.0071983-0.0248585,0.0141144-0.036499,0.0223808c-0.012373,0.0087738-0.0236206,0.0189552-0.0351505,0.0290222  c-0.0111351,0.0097275-0.0222702,0.0192337-0.0323925,0.0299759c-0.0096741,0.0102348-0.0182228,0.0214806-0.0269966,0.0326729  c-0.0103474,0.0132179-0.0204144,0.0263786-0.0293007,0.0406609c-0.0026417,0.0042763-0.0061855,0.0077629-0.0087166,0.0121498  l-2.2805099,3.9500313c-0.0025311,0.0043869-0.0037117,0.0091133-0.006073,0.0135536  c-0.0079861,0.014904-0.0144539,0.0302582-0.0206966,0.0458374c-0.0052853,0.0131607-0.0107422,0.0260925-0.0147343,0.0394249  c-0.0042744,0.0143967-0.0069733,0.0289612-0.0098991,0.0436974c-0.0028667,0.0147324-0.0059605,0.0293541-0.0074234,0.0442047  c-0.0014057,0.0146751-0.0011234,0.0293007-0.0011234,0.0440903s-0.0002823,0.0294113,0.0011234,0.0440903  c0.0014629,0.0148468,0.0045567,0.0295258,0.0074806,0.0443192c0.0028687,0.014679,0.0055676,0.0292435,0.0098419,0.0435295  c0.0039921,0.013382,0.009449,0.0263748,0.0147343,0.0395355c0.0063,0.0155792,0.0127659,0.0309868,0.0206966,0.0458336  c0.0023613,0.0044441,0.0035419,0.0091133,0.006073,0.0135002l2.2805099,3.9498062  c0.0854836,0.1482468,0.2407055,0.2310333,0.4003124,0.2310333c0.0782852,0,0.1576958-0.0200195,0.2304688-0.062088  c0.2207966-0.127327,0.2964954-0.409874,0.1689434-0.6305542l-2.1472206-3.7190056l2.0139332-3.4884186h4.0278702  l2.1472225,3.7192268l2.2806206,3.9498062c0.0854836,0.1482468,0.2407036,0.2310333,0.4003143,0.2310333  c0.0782852,0,0.157692-0.0200195,0.2304688-0.062088c0.2207947-0.127327,0.2964935-0.409874,0.1689415-0.6305542  l-2.2806206-3.9498138l-1.8807602-3.2576103h3.4949455l2.1472206,3.7192268  c0.0854836,0.1482468,0.2407036,0.2310295,0.4003105,0.2310295c0.0782852,0,0.1576958-0.0200195,0.2303581-0.0618629  c0.2209091-0.127552,0.296608-0.410099,0.1690559-0.6307831l-1.8807602-3.2576103h7.5228119l-1.8807564,3.2576103  l-2.2805099,3.9498138l-2.1472244,3.719223h-4.0279808l-2.1472206-3.719223l-2.2805099-3.9498138  c-0.1274395-0.2209053-0.4096489-0.2969437-0.6307812-0.1689415c-0.2207966,0.127327-0.2964954,0.409874-0.1689434,0.630558  l2.2805099,3.9498062l2.2805099,3.9500351c0.0020218,0.0034866,0.0051155,0.0059052,0.0071983,0.0093384  c0.0194016,0.031662,0.0412788,0.061409,0.0674858,0.0873947c0.0034294,0.0034866,0.0075378,0.0058441,0.0110779,0.0091095  c0.022892,0.0213699,0.0479736,0.0400391,0.0748558,0.0564651c0.0097847,0.0059052,0.0196838,0.0109634,0.0298653,0.0161362  c0.0229988,0.0118103,0.0469589,0.0213776,0.0720406,0.0292511c0.0102348,0.0032043,0.0200233,0.0069733,0.0304832,0.0094452  c0.0325623,0.0077591,0.0661354,0.0126572,0.1010056,0.0130997c0.0021362,0,0.0041618,0.0007935,0.0062981,0.0007935  c0.0005646,0,0.0011253-0.0002289,0.0017433-0.0002289h4.5567436c0.0006218,0,0.0011826,0.0002289,0.0017471,0.0002289  c0.0005608,0,0.0011215-0.0002289,0.0017433-0.0002289h3.7601128l-1.8807602,3.2576141  c-0.127552,0.2206879-0.0518532,0.5032349,0.1690559,0.6307831c0.0726585,0.0418396,0.1520691,0.0618591,0.2303543,0.0618591  c0.1596107,0,0.3148308-0.0827789,0.4003143-0.2310257l2.1472206-3.7192307h3.4949455l-1.8808708,3.2576141l-2.1472244,3.7192307  h-4.0278702l-2.1472206-3.7192307c-0.1274376-0.2209091-0.409874-0.2962646-0.6306686-0.1691666  c-0.2209091,0.1275482-0.296608,0.4100952-0.1690559,0.6307831l2.2805099,3.9500351  c0.0020256,0.0034866,0.0051193,0.0059052,0.0071983,0.0093307c0.0194016,0.031662,0.0412788,0.0614166,0.0674858,0.0873947  c0.0034332,0.0034866,0.0075378,0.0058517,0.0110817,0.0091171c0.0228882,0.0213699,0.0479698,0.0400391,0.074852,0.0564575  c0.0097885,0.0059052,0.0196838,0.0109711,0.0298653,0.0161438c0.0230026,0.0118103,0.0469589,0.0213699,0.0720406,0.0292435  c0.0102386,0.0032043,0.0200233,0.0069733,0.0304832,0.0094528c0.0325623,0.0077591,0.0661392,0.0126495,0.1010056,0.0130997  c0.0021362,0,0.0041618,0.0007858,0.0062981,0.0007858c0.0005646,0,0.0011253-0.0002213,0.0017433-0.0002213h4.2922516  l2.1472244,3.719223l2.1473312,3.7192307l-2.0140457,3.4881973h-4.0278702l-2.1472206-3.7190018  c-0.0025291-0.0043869-0.006073-0.0078735-0.0087738-0.0121536c-0.008831-0.0142288-0.0187836-0.0273895-0.0290756-0.0404892  c-0.0088844-0.0113602-0.0174904-0.0226669-0.0272751-0.0330124c-0.0098991-0.0104599-0.0208092-0.0197983-0.031662-0.0293045  c-0.0118103-0.0103989-0.0234528-0.0208054-0.0361633-0.0298004c-0.0110245-0.0078735-0.0228348-0.0144043-0.0345879-0.0212631  c-0.0139465-0.0081558-0.0277252-0.0163651-0.042347-0.0230026c-0.0120354-0.005455-0.0246887-0.0095062-0.0372314-0.0138931  c-0.0158577-0.0056229-0.031662-0.0110779-0.048027-0.0149002c-0.0119247-0.0027542-0.0240707-0.0042725-0.0362778-0.006073  c-0.0183868-0.0027542-0.0366096-0.0050583-0.0552826-0.0055695c-0.0044975-0.0001678-0.0086594-0.0013504-0.0131607-0.0013504  H24.914156c-0.2549896,0-0.4617252,0.2065125-0.4617252,0.4616165s0.2067356,0.4616089,0.4617252,0.4616089h13.4165936  l1.7474747,3.0265884H22.9001102l-2.1472225-3.7190018c-0.1274376-0.2209091-0.4096489-0.2969513-0.6307812-0.1689453  c-0.2207966,0.127327-0.2964954,0.409874-0.1689434,0.6305542l1.8807583,3.2573929h-3.4948311l-2.0139332-3.4881973  l2.0139332-3.4884186h8.8533821c0.0006199,0,0.0011806,0.0002213,0.0017433,0.0002213  c0.0021381,0,0.0041618-0.0007858,0.0063-0.0007858c0.0348682-0.0004501,0.0684433-0.0053406,0.1010056-0.0131073  c0.0104599-0.0024719,0.0202465-0.0062408,0.0304813-0.0094452c0.0250835-0.0078735,0.0490417-0.0174332,0.0720425-0.0292435  c0.0101795-0.0051727,0.0200787-0.0102386,0.0298634-0.0161438c0.0268822-0.0164185,0.0519657-0.0350952,0.0748558-0.0564651  c0.0035419-0.0032578,0.0076485-0.0056229,0.0110779-0.0091095c0.0262089-0.0259781,0.0480862-0.0557327,0.0674877-0.0873947  c0.0020809-0.0034332,0.0051746-0.0058517,0.0071983-0.0093384l1.8806477-3.2574387l1.8806477,3.2574387  c0.0854836,0.1482468,0.2407036,0.2310333,0.4003124,0.2310333c0.0782852,0,0.1576939-0.0200195,0.2303562-0.0618591  c0.2209091-0.1275558,0.296608-0.4101028,0.1690559-0.6307831l-2.2805099-3.9500351l-2.1472225-3.7192307l1.7473602-3.0266342  l1.8806477,3.2574463l2.2805099,3.9500351l2.2806206,3.9500275c0.0020256,0.0034866,0.0051193,0.0059052,0.0071983,0.0093384  c0.0194016,0.031662,0.0412788,0.0614166,0.0674896,0.0873947c0.0034294,0.0034866,0.007534,0.0058517,0.0110779,0.0091095  c0.0228882,0.0213699,0.0479698,0.0400467,0.0748558,0.0564651c0.0097847,0.0059052,0.0196838,0.0109711,0.0298615,0.0161438  c0.0230026,0.0118103,0.0469589,0.0213699,0.0720444,0.0292435c0.0102348,0.0032043,0.0200195,0.0069733,0.0304794,0.0094452  c0.0325623,0.0077667,0.0661392,0.0126572,0.1010056,0.0131073c0.00214,0,0.0041618,0.0007858,0.0063019,0.0007858  c0.0005608,0,0.0011215-0.0002213,0.0017433-0.0002213h4.2922478l2.1472244,3.719223  c0.0854836,0.1482468,0.2407036,0.2310333,0.4003105,0.2310333c0.0782852,0,0.1576958-0.0200195,0.2303581-0.0618668  c0.2209091-0.1275482,0.2966042-0.4100952,0.1690559-0.6307755l-2.2805099-3.9500351  c-0.002533-0.0043869-0.006073-0.0078201-0.0087166-0.012146c-0.0088882-0.0142899-0.0189552-0.0275574-0.0293007-0.0407181  c-0.0087738-0.0111923-0.0173225-0.0223846-0.0268822-0.0325623c-0.0102386-0.0108566-0.0214844-0.0204163-0.0327339-0.0302582  c-0.0114136-0.0099564-0.0225525-0.0199661-0.0347557-0.0286255c-0.0119209-0.0085526-0.0247459-0.0156403-0.0374527-0.0229492  c-0.012825-0.0074234-0.0254784-0.0150146-0.0389214-0.0211487c-0.0135536-0.0061798-0.0277252-0.0107346-0.041954-0.0156326  c-0.0141716-0.004837-0.0281754-0.0097809-0.0427399-0.0132675c-0.0136681-0.003212-0.0276718-0.0049515-0.041729-0.0069733  c-0.0165367-0.0023651-0.0329018-0.0044479-0.0496597-0.0050125c-0.0051193-0.0001678-0.0098419-0.0015182-0.0150185-0.0015182  h-4.2944412l-2.1473351-3.719223l-2.2805099-3.9500351l-2.2805099-3.9500351  c-0.0042744-0.0074768-0.0101223-0.013382-0.0147343-0.0205231c-0.0093365-0.0142899-0.0189533-0.0282364-0.0299206-0.0415039  c-0.0093346-0.0113602-0.0193462-0.0217667-0.0295811-0.0320053c-0.010685-0.0107422-0.0214844-0.0211411-0.0334072-0.0308762  c-0.0127087-0.0104599-0.0260372-0.0196228-0.0397034-0.0286255c-0.0075378-0.0049438-0.0138359-0.0110779-0.0217094-0.0156326  c-0.004612-0.0026398-0.0095596-0.0039368-0.0142288-0.0064087c-0.0143414-0.0075912-0.0290756-0.0137253-0.044035-0.0197983  c-0.0136108-0.0055084-0.0271072-0.0111923-0.0409985-0.0152969c-0.0140038-0.004158-0.0282879-0.0068054-0.0426292-0.0096741  c-0.0150166-0.0029221-0.029808-0.006073-0.0448799-0.0075378c-0.0146217-0.0014038-0.0293007-0.0011215-0.044035-0.0011215  s-0.0294132-0.0002823-0.044035,0.0011215c-0.0150738,0.0014648-0.0298634,0.0046158-0.0448799,0.0075378  c-0.0143414,0.0028687-0.0286255,0.0055161-0.0426292,0.0096741c-0.0138912,0.0041046-0.0273895,0.0097885-0.0409985,0.0152969  c-0.0149593,0.006073-0.0296955,0.012207-0.044035,0.0197983c-0.0046692,0.0024719-0.0096169,0.0037689-0.0142288,0.0064087  c-0.0078735,0.0045547-0.0141735,0.0106888-0.0217094,0.0156326c-0.0136662,0.0090027-0.0269947,0.0181656-0.0397053,0.0286255  c-0.0119228,0.0097351-0.0227203,0.020134-0.0334053,0.0308762c-0.0102348,0.0102386-0.0202465,0.0206451-0.029583,0.0320053  c-0.0109653,0.0132675-0.0205822,0.0272141-0.0299187,0.0415039c-0.004612,0.0071411-0.0104599,0.0130463-0.0147343,0.0205231  l-2.1472225,3.7192307h-4.2945557c-0.0051746,0-0.0098991,0.0013504-0.0150166,0.0015182  c-0.0167599,0.0005646-0.0331249,0.0026398-0.0496597,0.0050049c-0.0140591,0.0020218-0.0280628,0.0037689-0.041729,0.0069733  c-0.0145664,0.0034866-0.0285702,0.0084381-0.0427418,0.0132751c-0.0142288,0.0048904-0.0284023,0.0094452-0.0419559,0.0156326  c-0.0134411,0.0061264-0.0260944,0.0137253-0.0389175,0.0211487c-0.0127087,0.007309-0.0255318,0.0143967-0.0374546,0.0229416  c-0.0122051,0.0086594-0.0233402,0.0186691-0.0347557,0.0286255c-0.0112476,0.0098419-0.0224972,0.0194016-0.032732,0.0302582  c-0.0095596,0.0101776-0.0181084,0.0213699-0.0268822,0.0325623c-0.0103474,0.0131607-0.0204144,0.0264359-0.0293007,0.0407181  c-0.0026436,0.0043335-0.0061874,0.0077591-0.0087166,0.012146l-2.1472225,3.7192307h-4.2944441  c-0.2549896,0-0.4617262,0.2065048-0.4617262,0.4616089s0.2067366,0.4616165,0.4617262,0.4616165h4.5588255  c0.000618,0,0.0011806,0.0002213,0.0017433,0.0002213s0.0011253-0.0002213,0.0017433-0.0002213h4.5598373  c0.2549896,0,0.4617271-0.2065125,0.4617271-0.4616165s-0.2067375-0.4616089-0.4617271-0.4616089h-3.7615185l1.7474728-3.0268097  h4.0279255l2.0139904,3.4884186l-2.0139904,3.4884186h-8.8555202c-0.0051727,0-0.0098972,0.0013504-0.0150146,0.0015182  c-0.0167599,0.0005646-0.0331821,0.0026474-0.0497169,0.0050125c-0.0140591,0.0019684-0.0280075,0.0037613-0.0416164,0.0069733  c-0.014679,0.0034866-0.028738,0.0084305-0.0430241,0.013382c-0.0141163,0.004837-0.0282326,0.0093918-0.0416737,0.0155182  c-0.0136089,0.0061874-0.0263748,0.0138397-0.0393105,0.0213165c-0.012598,0.0073166-0.0251961,0.0142899-0.0370064,0.0226669  c-0.012373,0.0087738-0.0237331,0.0190048-0.0352612,0.0290756c-0.0110798,0.0096741-0.0221024,0.0190659-0.0321693,0.029747  c-0.0097294,0.0103531-0.0183907,0.0217133-0.027277,0.0330124c-0.0102348,0.0131073-0.0201893,0.0262146-0.0290184,0.0404434  c-0.0026989,0.0042725-0.0062428,0.0076981-0.0087738,0.012146l-2.280509,3.9500351  c-0.0025311,0.0043869-0.0037117,0.0091095-0.006074,0.0135498c-0.0079861,0.0149002-0.0144539,0.0302582-0.0206966,0.0458374  c-0.0052862,0.0131607-0.0107412,0.0260925-0.0147343,0.0394211c-0.0042744,0.0143967-0.0069742,0.0289612-0.0098982,0.0437012  c-0.0028687,0.0147324-0.0059614,0.0293579-0.0074234,0.0442047c-0.0014067,0.014679-0.0011253,0.0292969-0.0011253,0.0440903  s-0.0002813,0.0294113,0.0011253,0.0440903c0.001462,0.0148468,0.0045547,0.0295258,0.0074797,0.0443192  c0.0028677,0.014679,0.0055676,0.0292435,0.0098419,0.0435257c0.003993,0.0133896,0.0094481,0.0263748,0.0147343,0.0395355  c0.006299,0.0155792,0.0127668,0.0309906,0.0206966,0.0458374c0.0023623,0.0044403,0.0035429,0.0091095,0.006074,0.0134964  l1.8807592,3.2573929H9.7499781l1.8807592-3.2573929c0.1275511-0.2206802,0.0518532-0.5032272-0.1689434-0.6305542  c-0.2212458-0.128006-0.5033426-0.0519638-0.6307812,0.1689453l-2.1472225,3.7190018H5.1890717l1.8806467-3.2573929  l4.1611567-7.2074738l1.8807592,3.2574387c0.0854845,0.1482468,0.2407055,0.2310333,0.4003124,0.2310333  c0.0782852,0,0.1576958-0.0200195,0.2304697-0.062088c0.2207956-0.127327,0.2964945-0.409874,0.1689434-0.6305542  l-2.1473351-3.7192307l2.1473351-3.719223l1.8806467-3.2574463l1.8806467,3.2574463  c0.0854836,0.1482468,0.2407055,0.2310257,0.4003124,0.2310257c0.0782852,0,0.1576958-0.0200195,0.2303562-0.0618591  c0.2209091-0.1275482,0.296608-0.4100952,0.1690559-0.6307831l-2.1472206-3.719223l1.7473583-3.0266418l1.8806477,3.2574463  c0.0020237,0.0034866,0.0051174,0.0059052,0.0071983,0.0093384c0.0194035,0.031662,0.0412807,0.061409,0.0674877,0.0873947  c0.0034294,0.0034866,0.0075359,0.0058441,0.0110798,0.0091095c0.0228882,0.0213699,0.0479717,0.0400391,0.0748539,0.0564651  c0.0097847,0.0059052,0.0196838,0.0109634,0.0298634,0.0161362c0.0230007,0.0118103,0.0469589,0.0213776,0.0720425,0.0292511  c0.0102348,0.0032043,0.0200214,0.0069733,0.0304813,0.0094452c0.0325623,0.0077591,0.0661373,0.0126572,0.1010056,0.0130997  c0.0021381,0,0.0041618,0.0007935,0.0063,0.0007935c0.0005627,0,0.0011253-0.0002289,0.0017433-0.0002289h4.5576439  c0.0006199,0,0.0011806,0.0002289,0.0017433,0.0002289c0.0030384,0,0.0061302-0.0011292,0.0092239-0.0011826  c0.0334053-0.0007324,0.0656872-0.0052338,0.0969563-0.0126572c0.0103493-0.0024719,0.0202465-0.0061874,0.030426-0.0093918  c0.0268822-0.0084305,0.0525284-0.0189514,0.0770473-0.0318832c0.005455-0.0029297,0.0114174-0.00383,0.0168171-0.0069733  c0.0044422-0.0025864,0.0078735-0.006073,0.0122032-0.0087738c0.0141716-0.0088348,0.027277-0.0187836,0.0403805-0.0290222  c0.0113029-0.0088272,0.0225506-0.0174332,0.0328426-0.0271072c0.0107994-0.0102386,0.020359-0.0214233,0.0301456-0.0326157  c0.0099545-0.0114212,0.0199642-0.0225525,0.0286808-0.0347595c0.0084934-0.0119247,0.0155792-0.0246887,0.0229454-0.0374527  c0.0074253-0.0128784,0.0150738-0.0254822,0.021204-0.0389786c0.0061855-0.0134964,0.010685-0.0276108,0.0155773-0.0417862  c0.0048923-0.0142288,0.0098419-0.0282288,0.0133286-0.0428543c0.0032063-0.0136642,0.0050049-0.0276642,0.0069733-0.0417252  c0.0023632-0.0165329,0.0044441-0.032959,0.0050068-0.0497208c0.0001678-0.0050583,0.0015182-0.0098419,0.0015182-0.0149536  c0-0.0087738-0.0020809-0.0168762-0.0025883-0.0255356c-0.0008984-0.0168152-0.0022488-0.0334625-0.0050602-0.0502243  c-0.0024757-0.0147858-0.0059624-0.0290146-0.0097866-0.0433044c-0.0038242-0.0142822-0.0078735-0.0283432-0.0131588-0.0424042  c-0.0060177-0.0159149-0.0131607-0.031044-0.0208092-0.0461121c-0.0038815-0.0076523-0.0061302-0.0156937-0.0104599-0.0232315  l-2.2806225-3.9500275c-0.1274395-0.2209091-0.4096489-0.2962723-0.6307812-0.1691742  c-0.2207966,0.1275558-0.2964954,0.4101028-0.1689434,0.6307831l1.8808708,3.2576141h-3.4948883l-2.0139904-3.4884186  l2.1472225-3.7190018l2.2805099-3.9500351l2.2806225-3.9500351c0.1275501-0.2206841,0.0518513-0.503231-0.1689434-0.6307793  c-0.2212467-0.1271019-0.5033436-0.0517426-0.6307831,0.1691666l-2.2806206,3.9500351l-2.2805099,3.9500313l-2.2805099,3.9498138  l-4.5610189,7.9000626l-2.2806215,3.9500351l-4.5610189,7.9000702l-2.2805097,3.9498062  c-0.0824471,0.1428452-0.0824471,0.3187637,0,0.4616089c0.0824468,0.1428528,0.2348559,0.2310333,0.3998625,0.2310333h91.221283  c0.0001144,0,0.0001678,0,0.0002213,0c0.0001144,0,0.0001678,0,0.0002289,0c0.0005035,0,0.0010147-0.0002213,0.0015717-0.0002213  c0.0365601-0.0001144,0.0717087-0.0055695,0.1058426-0.0137787c0.0092239-0.0021973,0.0179977-0.0055695,0.0271072-0.0083847  c0.0281754-0.0086594,0.0549469-0.0196838,0.0805359-0.033287c0.0050049-0.0027008,0.0104599-0.0035477,0.0154114-0.0064163  c0.0041046-0.0023575,0.007309-0.0056229,0.0112457-0.0080948c0.0150146-0.009285,0.0288544-0.0197983,0.0426331-0.0306549  c0.0106812-0.0083771,0.0213699-0.0165329,0.0310974-0.0256958c0.0112457-0.0105743,0.0212021-0.0222168,0.0313263-0.0338593  c0.0096207-0.0110779,0.0193481-0.0218811,0.0277786-0.0336914C95.9943466,88.6081314,96.0015488,88.5951385,96.0090256,88.5820923z  "/><text x="0" y="115" fill="#000000" font-size="5px" font-weight="bold" font-family="'Helvetica Neue', Helvetica, Arial-Unicode, Arial, Sans-serif">Created by Alexander Skowalsky</text><text x="0" y="120" fill="#000000" font-size="5px" font-weight="bold" font-family="'Helvetica Neue', Helvetica, Arial-Unicode, Arial, Sans-serif">from the Noun Project</text></svg>