<svg xmlns="http://www.w3.org/2000/svg" xmlns:xlink="http://www.w3.org/1999/xlink" xml:space="preserve" version="1.1" style="shape-rendering:geometricPrecision;text-rendering:geometricPrecision;image-rendering:optimizeQuality;" viewBox="0 0 847 1058.75" x="0px" y="0px" fill-rule="evenodd" clip-rule="evenodd"><defs><style type="text/css">
   
    .fil0 {fill:black;fill-rule:nonzero}
   
  </style></defs><g><path class="fil0" d="M326 314c24,-22 56,-35 89,-37l0 -106c-93,-10 -86,-150 8,-150 95,0 102,140 9,150l0 106c34,2 65,15 89,37l75 -75c-58,-73 45,-167 112,-100 67,66 -27,170 -100,112l-75 75c21,24 35,55 37,89l106 0c10,-93 150,-86 150,8 0,95 -140,102 -150,9l-106 0c-2,33 -15,64 -37,89l75 75c73,-58 167,45 100,112 -66,66 -171,-26 -112,-100l-75 -75c-25,22 -56,35 -89,37l0 106c92,10 86,150 -9,150 -41,0 -75,-34 -75,-75 0,-39 29,-71 67,-75l0 -106c-34,-2 -65,-16 -89,-37l-75 75c24,30 21,73 -6,100 -29,29 -77,29 -106,0 -30,-29 -30,-77 0,-107 27,-26 70,-29 100,-5l75 -75c-22,-24 -35,-55 -37,-89l-106 0c-10,93 -150,86 -150,-9 0,-94 140,-101 150,-8l106 0c2,-33 15,-65 37,-89l-75 -75c-73,58 -167,-46 -100,-112 66,-67 170,27 112,100l75 75z"/></g><text x="0" y="862" fill="#000000" font-size="5px" font-weight="bold" font-family="'Helvetica Neue', Helvetica, Arial-Unicode, Arial, Sans-serif">Created by alex setyawan</text><text x="0" y="867" fill="#000000" font-size="5px" font-weight="bold" font-family="'Helvetica Neue', Helvetica, Arial-Unicode, Arial, Sans-serif">from the Noun Project</text></svg>