<svg xmlns="http://www.w3.org/2000/svg" xmlns:xlink="http://www.w3.org/1999/xlink" version="1.1" x="0px" y="0px" viewBox="0 0 100 125" enable-background="new 0 0 100 100" xml:space="preserve"><polygon points="27.5,89 50,89 38.8,69.5 "/><polygon points="5,89 27.5,89 16.2,69.5 "/><polygon points="27.5,50 16.2,69.5 38.8,69.5 "/><polygon points="72.5,89 95,89 83.8,69.5 "/><polygon points="50,89 72.5,89 61.2,69.5 "/><polygon points="83.8,69.5 72.5,50 61.2,69.5 "/><polygon points="72.5,50 61.2,30.5 50,50 "/><polygon points="38.8,30.5 27.5,50 50,50 "/><polygon points="50,11 38.8,30.5 61.2,30.5 "/><text x="0" y="115" fill="#000000" font-size="5px" font-weight="bold" font-family="'Helvetica Neue', Helvetica, Arial-Unicode, Arial, Sans-serif">Created by Bohdan Burmich</text><text x="0" y="120" fill="#000000" font-size="5px" font-weight="bold" font-family="'Helvetica Neue', Helvetica, Arial-Unicode, Arial, Sans-serif">from the Noun Project</text></svg>