<svg xmlns="http://www.w3.org/2000/svg" data-name="Layer 1" viewBox="0 0 100 125" x="0px" y="0px"><title>sb_idea</title><path d="M49.39,40a10.82,10.82,0,0,0-4.93,1.41c-2.25,1.3-5,4.05-5.06,9.8a1.26,1.26,0,0,0,1.24,1.28h0a1.26,1.26,0,0,0,1.26-1.24C42,47.6,43.22,45,45.63,43.61a8.39,8.39,0,0,1,3.76-1.13,1.26,1.26,0,0,0,0-2.51Z"/><path d="M50,14.34c-26.23,0-47.5,16-47.5,35.66A29.19,29.19,0,0,0,9.25,68.32L2.5,85.66l18-7.72A57.86,57.86,0,0,0,50,85.66c26.23,0,47.5-16,47.5-35.66S76.23,14.34,50,14.34ZM65.93,40.87,71,38a1.26,1.26,0,0,1,1.26,2.18l-5,2.91a1.26,1.26,0,0,1-1.26-2.18ZM48.7,25.44a1.26,1.26,0,1,1,2.51,0v5.82a1.26,1.26,0,0,1-2.51,0ZM24.34,51a1.26,1.26,0,0,1,1.26-1.26h5.82a1.26,1.26,0,0,1,0,2.51H25.6A1.26,1.26,0,0,1,24.34,51ZM34,60.89,29,63.8a1.26,1.26,0,1,1-1.26-2.18l5-2.91A1.26,1.26,0,0,1,34,60.89Zm.46-18.3a1.26,1.26,0,0,1-1.72.46l-5-2.91A1.26,1.26,0,1,1,29,38l5,2.91A1.26,1.26,0,0,1,34.47,42.59Zm1.1-13.84a1.26,1.26,0,0,1,1.75.33l3.28,4.81a1.26,1.26,0,1,1-2.08,1.42L35.25,30.5A1.26,1.26,0,0,1,35.58,28.76Zm16.66,45v.66a1.43,1.43,0,0,1-1.43,1.43h-2a1.43,1.43,0,0,1-1.43-1.43v-.69a3.1,3.1,0,0,1-2.64-3.06H55.19A3.1,3.1,0,0,1,52.24,73.74Zm2.72-5H45a1.26,1.26,0,1,1,0-2.51H55a1.26,1.26,0,1,1,0,2.51Zm6.71-13.18q-.11.29-.24.57a13,13,0,0,1-2.17,3.34l-3.2,4.93H43.86l-3.2-4.93a13,13,0,0,1-2.17-3.34q-.13-.28-.24-.57a13.21,13.21,0,0,1-.92-4.87,12.64,12.64,0,1,1,25.27,0A13.22,13.22,0,0,1,61.66,55.54Zm3.07-25-3.28,4.81a1.26,1.26,0,0,1-2.08-1.42l3.28-4.81a1.26,1.26,0,0,1,2.08,1.42Zm8,32.84A1.26,1.26,0,0,1,71,63.8l-5-2.91a1.26,1.26,0,0,1,1.26-2.18l5,2.91A1.26,1.26,0,0,1,72.69,63.34ZM74.4,52.26H68.58a1.26,1.26,0,0,1,0-2.51H74.4a1.26,1.26,0,0,1,0,2.51Z"/><text x="0" y="115" fill="#000000" font-size="5px" font-weight="bold" font-family="'Helvetica Neue', Helvetica, Arial-Unicode, Arial, Sans-serif">Created by Davo Sime</text><text x="0" y="120" fill="#000000" font-size="5px" font-weight="bold" font-family="'Helvetica Neue', Helvetica, Arial-Unicode, Arial, Sans-serif">from the Noun Project</text></svg>