<svg x="0px" y="0px" viewBox="0 0 100 100">
<path d="M42.994,10.871c-2.139-0.886-4.482-0.42-6.119,1.218L10.652,38.311c-1.637,1.637-2.104,3.981-1.218,6.12  s2.874,3.467,5.188,3.467h26.223c3.097,0,5.615-2.519,5.615-5.615V16.06C46.461,13.744,45.133,11.756,42.994,10.871z"/><path d="M70.125,3.652c-1.636-1.638-3.98-2.104-6.119-1.218c-2.139,0.885-3.467,2.873-3.467,5.188v26.223  c0,3.097,2.519,5.615,5.615,5.615h26.223c2.315,0,4.304-1.328,5.188-3.467c0.886-2.139,0.419-4.483-1.218-6.119L70.125,3.652z"/><path d="M40.846,53.539H14.623c-2.315,0-4.304,1.328-5.188,3.467c-0.886,2.139-0.419,4.483,1.218,6.119l26.223,26.223  c1.088,1.089,2.489,1.659,3.935,1.659c0.729,0,1.468-0.145,2.185-0.441c2.139-0.885,3.467-2.873,3.467-5.188V59.154  C46.461,56.058,43.942,53.539,40.846,53.539z"/><path d="M83.94,53.539H57.718c-3.097,0-5.615,2.519-5.615,5.615v26.223c0,2.314,1.328,4.303,3.467,5.188  c0.717,0.297,1.456,0.441,2.185,0.441c1.445,0,2.848-0.57,3.936-1.659l26.222-26.223c1.637-1.636,2.104-3.98,1.218-6.119  C88.244,54.867,86.256,53.539,83.94,53.539z"/>
</svg>