<svg xmlns="http://www.w3.org/2000/svg" viewBox="0 0 32 32" x="0px" y="0px"><title>Artboard 18</title><g data-name="Layer 2"><path d="M13,27.25a2.82,2.82,0,0,0,.07.65,12.2,12.2,0,0,1-7.41-5.32A1,1,0,0,1,6,21.14,1,1,0,0,1,6.51,21a1,1,0,0,1,.82.45,10.21,10.21,0,0,0,6,4.43A2.9,2.9,0,0,0,13,27.25Z"/><path d="M27.91,18.85a12.14,12.14,0,0,1-5.34,7.49A1,1,0,0,1,21.14,26a1,1,0,0,1,.33-1.29,10.21,10.21,0,0,0,4.4-5.9A2.85,2.85,0,0,0,27,19,2.71,2.71,0,0,0,27.91,18.85Z"/><path d="M26,10.86a1,1,0,0,1-.47.12,1,1,0,0,1-.82-.45,10.21,10.21,0,0,0-5.9-4.4A2.85,2.85,0,0,0,19,5a2.71,2.71,0,0,0-.15-.91,12.17,12.17,0,0,1,7.49,5.33A1,1,0,0,1,26,10.86Z"/><path d="M11,6.51a1,1,0,0,1-.45.82,10.21,10.21,0,0,0-4.4,5.9A2.85,2.85,0,0,0,5,13a2.71,2.71,0,0,0-.91.15A12.17,12.17,0,0,1,9.42,5.66,1,1,0,0,1,10.86,6,1,1,0,0,1,11,6.51Z"/><path d="M16,31.25a4,4,0,0,1-3.91-3.14,3.81,3.81,0,0,1-.09-.86,3.91,3.91,0,0,1,.44-1.81A4,4,0,1,1,16,31.25Zm0-6a2,2,0,0,0-1.77,1.09,1.94,1.94,0,0,0-.23.91,1.85,1.85,0,0,0,0,.42,2,2,0,1,0,2-2.42Z"/><path d="M16,9a4,4,0,0,1,0-8,4,4,0,0,1,3.8,2.79A3.62,3.62,0,0,1,20,5a3.84,3.84,0,0,1-.31,1.53A3.93,3.93,0,0,1,16,9Zm0-6a2,2,0,0,0,0,4,2,2,0,0,0,1.84-1.23A1.9,1.9,0,0,0,18,5a1.7,1.7,0,0,0-.09-.57A2,2,0,0,0,16,3Z"/><path d="M5,20a4,4,0,0,1-4-4,4,4,0,0,1,5.52-3.69A3.93,3.93,0,0,1,9,16,4,4,0,0,1,5,20Zm0-6a1.7,1.7,0,0,0-.57.09A2,2,0,1,0,7,16a2,2,0,0,0-1.23-1.84A1.89,1.89,0,0,0,5,14Z"/><path d="M27,20a3.84,3.84,0,0,1-1.53-.31A3.93,3.93,0,0,1,23,16a4,4,0,1,1,5.21,3.8A3.62,3.62,0,0,1,27,20Zm0-6a2,2,0,0,0-2,2,2,2,0,0,0,1.23,1.84,1.85,1.85,0,0,0,1.34.07A2,2,0,0,0,27,14Z"/><path d="M19,27.25a3,3,0,0,1-5.93.65,2.82,2.82,0,0,1-.07-.65,2.9,2.9,0,0,1,.33-1.35A3,3,0,0,1,19,27.25Z"/><path d="M19,5a2.85,2.85,0,0,1-.23,1.13A3,3,0,0,1,16,8a3,3,0,1,1,2.85-3.91A2.71,2.71,0,0,1,19,5Z"/><path d="M8,16a3,3,0,1,1-3.91-2.85A2.71,2.71,0,0,1,5,13a2.85,2.85,0,0,1,1.13.23A3,3,0,0,1,8,16Z"/><path d="M30,16a3,3,0,0,1-2.09,2.85A2.71,2.71,0,0,1,27,19a2.85,2.85,0,0,1-1.13-.23A3,3,0,0,1,24,16a3,3,0,0,1,6,0Z"/></g><text x="0" y="47" fill="#000000" font-size="5px" font-weight="bold" font-family="'Helvetica Neue', Helvetica, Arial-Unicode, Arial, Sans-serif">Created by Phoenix group</text><text x="0" y="52" fill="#000000" font-size="5px" font-weight="bold" font-family="'Helvetica Neue', Helvetica, Arial-Unicode, Arial, Sans-serif">from the Noun Project</text></svg>