<svg xmlns="http://www.w3.org/2000/svg" data-name="Layer 1" viewBox="0 0 128 160" x="0px" y="0px"><title>Technology of future 03 solid</title><path d="M93.82861,79h7.46625a7,7,0,1,0,0-4H93a2.00025,2.00025,0,0,0-1.41406.58594l-12,12A2.00025,2.00025,0,0,0,79,89v35H75V86.82813L89.41406,72.41406A2.00025,2.00025,0,0,0,90,71V61.7052a7,7,0,1,0-4,0v8.46667l-1.5,1.5L69.0708,56.24316V49.686a1.99148,1.99148,0,0,0,.34326-.272L81.82861,37h5.46625a7,7,0,1,0,0-4H81a2.00025,2.00025,0,0,0-1.41406.58594L69.0708,44.10107V34.687a7.00951,7.00951,0,1,0-4,.0365V57.07129a2.00025,2.00025,0,0,0,.58594,1.41406L81.67188,74.5,71.58594,84.58594A2.00025,2.00025,0,0,0,71,86v38H66V71.09277a2.00025,2.00025,0,0,0-.58594-1.41406l-8.46045-8.46V46.41486a2.00466,2.00466,0,0,0,0-.82971v-31.868a6.9937,6.9937,0,1,0-4-.02393V41.12549l-9.53955-9.53955A2.00025,2.00025,0,0,0,42,31H35.70514a7,7,0,1,0,0,4h5.46625L52.95361,46.78174V62.04688a2.00025,2.00025,0,0,0,.58594,1.41406L62,71.9209V124H57V86a2.00025,2.00025,0,0,0-.58594-1.41406L42,70.17188V61.7052a7,7,0,1,0-4,0V71a2.00025,2.00025,0,0,0,.58594,1.41406L53,86.82813V124H49V89a2.00025,2.00025,0,0,0-.58594-1.41406l-12-12A2.00025,2.00025,0,0,0,35,75H26.70514a7,7,0,1,0,0,4h7.46625L45,89.82813V124H25a2,2,0,0,0,0,4h78a2,2,0,0,0,0-4H83V89.82813Z"/><text x="0" y="143" fill="#000000" font-size="5px" font-weight="bold" font-family="'Helvetica Neue', Helvetica, Arial-Unicode, Arial, Sans-serif">Created by priyanka</text><text x="0" y="148" fill="#000000" font-size="5px" font-weight="bold" font-family="'Helvetica Neue', Helvetica, Arial-Unicode, Arial, Sans-serif">from the Noun Project</text></svg>