<svg xmlns="http://www.w3.org/2000/svg" xmlns:xlink="http://www.w3.org/1999/xlink" version="1.1" x="0px" y="0px" viewBox="0 0 100 125" enable-background="new 0 0 100 100" xml:space="preserve"><g><path d="M52.595,14.132l-3.846,32.801h23.646L43.625,86.201l6.394-30.267H27.65L52.595,14.132 M27.65,55.934h-0.046H27.65    M55.67,5.075l-4.793,8.032L25.933,54.909l-1.805,3.025h3.522h19.901l-5.884,27.854l-1.92,9.088l5.49-7.493l28.771-39.267   l2.331-3.182h-3.944H50.997l3.584-30.568L55.67,5.075L55.67,5.075z"/><path d="M50.484,23.542l-2.658,22.679l-5.722,2.235L50.484,23.542 M52.595,14.132L40.474,50.167l8.275-3.233L52.595,14.132   L52.595,14.132z"/><path d="M59.15,53.177L46.195,78.714l4.692-22.062L59.15,53.177 M61.275,51.198l-11.257,4.736l-6.394,30.058L61.275,51.198   L61.275,51.198z"/></g><text x="0" y="115" fill="#000000" font-size="5px" font-weight="bold" font-family="'Helvetica Neue', Helvetica, Arial-Unicode, Arial, Sans-serif">Created by Carlos Salgado</text><text x="0" y="120" fill="#000000" font-size="5px" font-weight="bold" font-family="'Helvetica Neue', Helvetica, Arial-Unicode, Arial, Sans-serif">from the Noun Project</text></svg>