<?xml version="1.0" encoding="iso-8859-1"?>
<!-- Generator: Adobe Illustrator 19.0.0, SVG Export Plug-In . SVG Version: 6.00 Build 0)  -->
<svg version="1.1" id="Capa_1" xmlns="http://www.w3.org/2000/svg" xmlns:xlink="http://www.w3.org/1999/xlink" x="0px" y="0px"
	 viewBox="0 0 512 512" style="enable-background:new 0 0 512 512;" xml:space="preserve">
<g>
	<path style="fill:#17ACE8;" d="M482,376v60c0,8.399-6.599,15-15,15s-15-6.601-15-15v-16.5C404.001,476.499,331.901,512,256,512
		C115.3,512,0,396.7,0,256c0-21.601,2.701-42.9,8.101-63.6c2.1-8.101,10.199-12.9,18.3-10.801c7.8,1.8,12.9,10.201,10.8,18.001
		c-4.799,18.3-7.2,37.2-7.2,56.4c0,124.2,101.8,226,226,226c71.1,0,138.701-34.9,180.7-91H407c-8.401,0-15-6.601-15-15
		c0-8.401,6.599-15,15-15h60C475.401,361,482,367.599,482,376z"/>
	<path style="fill:#17ACE8;" d="M512,256c0,21.599-2.701,42.9-8.101,63.6c-2.1,8.399-10.199,12.9-18.3,10.8
		c-7.8-1.8-12.9-10.199-10.8-17.999c4.799-18.301,7.2-37.2,7.2-56.4c0-124.2-101.8-225-226-225c-71.1,0-138.701,33.9-180.7,90H105
		c8.401,0,15,6.599,15,15c0,8.399-6.599,15-15,15H45c-8.401,0-15-6.601-15-15V76c0-8.401,6.599-15,15-15s15,6.599,15,15v16.5
		C107.999,35.499,180.099,0,256,0C396.7,0,512,115.3,512,256z"/>
</g>
<path style="fill:#FEDB41;" d="M389.9,218.5c-2.699-4.801-7.5-7.5-12.9-7.5H271V76c0-6.901-4.501-12.9-11.1-14.401
	C258.401,61.3,257.5,61,256,61c-5.099,0-10.201,2.699-12.9,7.5l-121,210c-2.701,4.799-2.701,10.499,0,15
	c2.699,4.799,7.5,7.5,12.9,7.5h106v135c0,6.899,4.501,12.9,11.1,14.399c1.199,0.3,2.701,0.601,3.9,0.601
	c5.4,0,10.201-2.701,12.9-7.5l121-210C392.601,228.699,392.601,222.999,389.9,218.5z"/>
<path style="fill:#FEA832;" d="M256,451V61c1.5,0,2.401,0.3,3.9,0.599C266.499,63.1,271,69.099,271,76v135h106
	c5.4,0,10.201,2.699,12.9,7.5c2.701,4.499,2.701,10.199,0,15l-121,210C266.201,448.299,261.4,451,256,451z"/>
<g>
	<path style="fill:#1689FC;" d="M482,376v60c0,8.399-6.599,15-15,15s-15-6.601-15-15v-16.5C404.001,476.499,331.901,512,256,512v-30
		c71.1,0,138.701-34.9,180.7-91H407c-8.401,0-15-6.601-15-15c0-8.401,6.599-15,15-15h60C475.401,361,482,367.599,482,376z"/>
	<path style="fill:#1689FC;" d="M512,256c0,21.599-2.701,42.9-8.101,63.6c-2.1,8.399-10.199,12.9-18.3,10.8
		c-7.8-1.8-12.9-10.199-10.8-17.999c4.799-18.301,7.2-37.2,7.2-56.4c0-124.2-101.8-225-226-225V0C396.7,0,512,115.3,512,256z"/>
</g>
<g>
</g>
<g>
</g>
<g>
</g>
<g>
</g>
<g>
</g>
<g>
</g>
<g>
</g>
<g>
</g>
<g>
</g>
<g>
</g>
<g>
</g>
<g>
</g>
<g>
</g>
<g>
</g>
<g>
</g>
</svg>
