<svg xmlns="http://www.w3.org/2000/svg" fill-rule="evenodd" clip-rule="evenodd" image-rendering="optimizeQuality" shape-rendering="geometricPrecision" text-rendering="geometricPrecision" viewBox="0 0 6.827 8.533">
  <defs/>
  <path d="M2.498 4.191h.251l.036.015a.98.98 0 00.297.19.88.88 0 00.331.065.633.633 0 00.269-.063c.097-.046.188-.112.27-.192l.038-.015h.338c.295 0 .563.121.757.315.194.194.315.462.315.757V5.973H1.427V5.263c0-.295.12-.563.315-.757.194-.194.462-.315.756-.315zm.231.107H2.5a.962.962 0 00-.682.284.962.962 0 00-.283.68v.605h3.759v-.604a.962.962 0 00-.283-.681.962.962 0 00-.682-.284H4.01c-.087.08-.182.149-.283.196a.739.739 0 01-.314.073.986.986 0 01-.371-.073 1.081 1.081 0 01-.313-.196zM4.504 2.485a1.464 1.464 0 01.029.29c0 .354-.125.675-.326.908-.202.235-.483.38-.794.38-.31 0-.59-.145-.794-.38a1.39 1.39 0 01-.318-1.054c.005-.05.012-.098.021-.144l.105.02a1.359 1.359 0 00-.026.27c0 .328.114.624.299.838a.943.943 0 00.713.344c.279 0 .53-.132.714-.344a1.283 1.283 0 00.293-.974 1.359 1.359 0 00-.02-.133l.104-.02zM3.43.856l1.879.539-.015.051.015-.051a.053.053 0 01-.002.103l-1.879.539a.053.053 0 01-.032 0l-1.878-.54.014-.05-.014.05a.053.053 0 01.002-.103L3.4.855a.053.053 0 01.031.001zm1.671.59L3.413.962l-1.687.484 1.687.484 1.688-.484z" class="fil0"/>
  <path d="M4.598 1.66a.053.053 0 00-.107 0v.725c0 .008-.006.015-.015.022a.135.135 0 01-.068.021l.004.054-.004-.054h-.003l-.993.077-.993-.077a.136.136 0 01-.068-.021c-.01-.007-.015-.015-.015-.022v-.724a.053.053 0 00-.107 0v.724c0 .045.023.081.06.108a.244.244 0 00.122.042l.994.076h.011l.997-.076h.003a.242.242 0 00.122-.042.132.132 0 00.06-.108v-.724z" class="fil0"/>
  <ellipse cx="3.413" cy="1.446" class="fil1" rx=".08" ry=".064"/>
  <circle cx="4.961" cy="2.571" r=".08" class="fil1"/>
  <path d="M3.48 1.393a.053.053 0 00-.007.106l1.435.093v.907a.053.053 0 00.107 0v-.957a.053.053 0 00-.05-.054l-.004.054.004-.053-1.485-.096z" class="fil0"/>
  <path d="M4.863 3.035l.098-.542.099.542z" class="fil1"/>
  <path fill="none" d="M0 0h6.827v6.827H0z"/>
</svg>