<svg xmlns="http://www.w3.org/2000/svg" data-name="Layer 2" viewBox="0 0 24 30" x="0px" y="0px"><title>Universal UI Symbol Line</title><path d="M6,7a6,6,0,1,0,6-6A6,6,0,0,0,6,7ZM16,7a4,4,0,1,1-4-4A4,4,0,0,1,16,7Z"/><path d="M16,13h-.13a.89.89,0,0,0-.48.13,7.15,7.15,0,0,1-6.78,0A.89.89,0,0,0,8.13,13H8a7,7,0,0,0-7,7v2a1,1,0,0,0,2,0V20a5,5,0,0,1,4.88-5,9.13,9.13,0,0,0,8.24,0A5,5,0,0,1,21,20v2a1,1,0,0,0,2,0V20A7,7,0,0,0,16,13Z"/><text x="0" y="39" fill="#000000" font-size="5px" font-weight="bold" font-family="'Helvetica Neue', Helvetica, Arial-Unicode, Arial, Sans-serif">Created by Ahmad Roaayala</text><text x="0" y="44" fill="#000000" font-size="5px" font-weight="bold" font-family="'Helvetica Neue', Helvetica, Arial-Unicode, Arial, Sans-serif">from the Noun Project</text></svg>