<svg xmlns="http://www.w3.org/2000/svg" viewBox="0 0 100 125">
  <defs/>
  <switch>
    <g>
      <path d="M5273.1 2400.1v-2c0-2.8-5-4-9.7-4s-9.7 1.3-9.7 4v2c0 1.8.7 3.6 2 4.9l5 4.9c.3.3.4.6.4 1v6.4c0 .4.2.7.6.8l2.9.9c.5.1 1-.2 1-.8v-7.2c0-.4.2-.7.4-1l5.1-5c1.3-1.3 2-3.1 2-4.9zm-9.7-.1c-4.8 0-7.4-1.3-7.5-1.8.1-.5 2.7-1.8 7.5-1.8s7.3 1.3 7.5 1.8c-.2.5-2.7 1.8-7.5 1.8z"/>
      <path d="M5268.4 2410.3c-.6 0-1 .4-1 1s.4 1 1 1h4.3c.6 0 1-.4 1-1s-.4-1-1-1h-4.3zM5272.7 2413.7h-4.3c-.6 0-1 .4-1 1s.4 1 1 1h4.3c.6 0 1-.4 1-1s-.4-1-1-1zM5272.7 2417h-4.3c-.6 0-1 .4-1 1s.4 1 1 1h4.3c.6 0 1-.4 1-1 0-.5-.4-1-1-1z"/>
      <g>
        <path d="M85.8 38.3c-1.7 0-3.2.4-4.7 1l-6.3-10.9c2.9-2.1 4.7-5.5 4.7-9.4 0-6.5-5.3-11.7-11.7-11.7-6 0-10.9 4.6-11.6 10.4H43.7C43 11.9 38.1 7.3 32.1 7.3c-6.5 0-11.7 5.3-11.7 11.7 0 3.8 1.9 7.2 4.7 9.4l-6.3 10.9c-1.4-.6-3-1-4.7-1-6.3 0-11.6 5.2-11.6 11.7s5.3 11.7 11.7 11.7c1.7 0 3.2-.4 4.7-1l6.3 10.9c-2.9 2.1-4.7 5.5-4.7 9.4 0 6.5 5.3 11.7 11.7 11.7 6 0 10.9-4.6 11.6-10.4h12.5c.7 5.8 5.6 10.4 11.6 10.4 6.5 0 11.7-5.3 11.7-11.7 0-3.8-1.9-7.2-4.7-9.4l6.3-10.9c1.4.6 3 1 4.7 1 6.5 0 11.7-5.3 11.7-11.7s-5.4-11.7-11.8-11.7zM67.8 10c5 0 9 4.1 9 9 0 2.4-1 4.6-2.5 6.2-.2-1.7-1.2-3.1-2.6-3.9.6-.8 1-1.9 1-3 0-2.7-2.2-5-5-5s-5 2.2-5 5c0 1.1.4 2.2 1 3-1.4.8-2.3 2.2-2.6 3.9v.1c-1.6-1.6-2.5-3.8-2.5-6.2.2-5.1 4.3-9.1 9.2-9.1zm-1.3 13.3h2.6c1.3 0 2.3 1 2.5 2.2l.2 1.5c-1.2.6-2.6 1-4 1-1.5 0-2.8-.4-4-1l.2-1.5c.2-1.2 1.2-2.2 2.5-2.2zm-.9-5c0-1.3 1-2.3 2.3-2.3s2.3 1 2.3 2.3c0 1.2-1 2.2-2.2 2.3h-.1c-1.4 0-2.3-1-2.3-2.3zm-42.5.7c0-5 4.1-9 9-9s9 4.1 9 9c0 2.4-1 4.6-2.5 6.2-.2-1.7-1.2-3.1-2.6-3.9.6-.8 1-1.9 1-3 0-2.7-2.2-5-5-5s-5 2.2-5 5c0 1.1.4 2.2 1 3-1.4.8-2.3 2.2-2.6 3.9v.1c-1.3-1.7-2.3-3.9-2.3-6.3zm7.7 4.3h2.6c1.3 0 2.3 1 2.5 2.2l.2 1.5c-1.2.6-2.6 1-4 1-1.5 0-2.8-.4-4-1l.2-1.5c.2-1.2 1.2-2.2 2.5-2.2zm-.9-5c0-1.3 1-2.3 2.3-2.3s2.3 1 2.3 2.3c0 1.2-1 2.2-2.2 2.3h-.1c-1.3 0-2.3-1-2.3-2.3zM14.2 59c-1.5 0-2.8-.4-4-1l.2-1.5c.2-1.3 1.2-2.2 2.5-2.2h2.6c1.3 0 2.3 1 2.5 2.2l.2 1.5c-1.2.7-2.5 1-4 1zm-2.3-9.7c0-1.3 1-2.3 2.3-2.3 1.3 0 2.3 1 2.3 2.3 0 1.2-1 2.2-2.2 2.3h-.1c-1.3 0-2.3-1-2.3-2.3zm8.8 6.9c-.2-1.7-1.2-3.1-2.6-3.9.6-.8 1-1.9 1-3 0-2.7-2.2-5-5-5-2.7 0-5 2.2-5 5 0 1.1.4 2.2 1 3-1.4.8-2.3 2.2-2.6 3.9v.1C5.9 54.7 5 52.5 5 50.1c0-5 4.1-9 9-9s9 4.1 9 9c.3 2.3-.7 4.5-2.3 6.1zM32.2 90c-1.5 0-2.8-.4-4-1l.2-1.5c.2-1.3 1.2-2.2 2.5-2.2h2.5c1.3 0 2.3 1 2.5 2.2l.2 1.5c-1.1.6-2.5 1-3.9 1zm-2.3-9.7c0-1.3 1-2.3 2.3-2.3s2.3 1 2.3 2.3c0 1.2-1 2.2-2.2 2.3h-.1c-1.3 0-2.3-1.1-2.3-2.3zm8.8 6.9c-.2-1.7-1.2-3.1-2.6-3.9.6-.8 1-1.9 1-3 0-2.7-2.2-5-5-5s-5 2.2-5 5c0 1.1.4 2.2 1 3-1.4.8-2.3 2.2-2.6 3.9v.1c-1.6-1.6-2.5-3.8-2.5-6.2 0-5 4.1-9 9-9s9 4.1 9 9c.2 2.3-.8 4.5-2.3 6.1zM67.8 90c-1.5 0-2.8-.4-4-1l.2-1.5c.2-1.3 1.2-2.2 2.5-2.2h2.6c1.3 0 2.3 1 2.5 2.2l.2 1.5c-1.1.6-2.5 1-4 1zm-2.2-9.7c0-1.3 1-2.3 2.3-2.3s2.3 1 2.3 2.3c0 1.2-1 2.2-2.2 2.3h-.1c-1.4 0-2.3-1.1-2.3-2.3zm11.3.7c0 2.4-1 4.6-2.5 6.2-.2-1.7-1.2-3.1-2.6-3.9.6-.8 1-1.9 1-3 0-2.7-2.2-5-5-5s-5 2.2-5 5c0 1.1.4 2.2 1 3-1.4.8-2.3 2.2-2.6 3.9v.1c-1.6-1.6-2.5-3.8-2.5-6.2 0-5 4.1-9 9-9s9.2 3.9 9.2 8.9zm-4.4-10.8c-1.4-.6-3-1-4.7-1-6 0-10.9 4.6-11.6 10.4H43.7c-.7-5.8-5.6-10.4-11.6-10.4-1.7 0-3.3.4-4.7 1l-6.3-10.9c2.9-2.1 4.8-5.5 4.8-9.4 0-3.8-1.9-7.2-4.8-9.4l6.3-10.9c1.4.6 3 1 4.7 1 6 0 10.9-4.6 11.6-10.4h12.5c.7 5.8 5.6 10.4 11.6 10.4 1.7 0 3.3-.4 4.7-1l6.3 10.9C75.9 42.8 74 46.2 74 50s1.9 7.2 4.8 9.4l-6.3 10.8zM85.8 59c-1.5 0-2.8-.4-4-1l.2-1.5c.2-1.3 1.2-2.2 2.5-2.2h2.6c1.3 0 2.3 1 2.5 2.2l.2 1.5c-1.2.7-2.6 1-4 1zm-2.3-9.7c0-1.3 1-2.3 2.3-2.3s2.3 1 2.3 2.3c0 1.2-1 2.2-2.2 2.3h-.1c-1.3 0-2.3-1-2.3-2.3zm8.8 6.9c-.2-1.7-1.2-3.1-2.6-3.9.6-.8 1-1.9 1-3 0-2.7-2.2-5-5-5s-5 2.2-5 5c0 1.1.4 2.2 1 3-1.4.8-2.3 2.2-2.6 3.9v.1c-1.6-1.6-2.5-3.8-2.5-6.2 0-5 4.1-9 9-9s9 4.1 9 9c.2 2.3-.8 4.5-2.3 6.1z"/>
        <path d="M50.7 48.6h-1.4c-.5 0-.9-.2-1.3-.6-.3-.4-.5-.8-.4-1.3.1-.9.9-1.5 1.8-1.5H51c.5 0 1 .4 1.1.9 0 .2.3.4.5.4h1.9c.1 0 .3-.1.4-.2.1-.1.1-.2.1-.4-.2-1.9-1.7-3.4-3.6-3.6v-1.7c0-.3-.2-.5-.5-.5h-1.8c-.3 0-.5.2-.5.5v1.7c-2.4.4-4.1 2.5-3.8 5 .2 2.3 2.3 4.1 4.8 4.1h1.2c.5 0 .9.2 1.3.6.3.4.5.8.4 1.3-.1.9-.9 1.5-1.8 1.5H49c-.5 0-1-.4-1.1-.9 0-.2-.3-.4-.5-.4h-1.9c-.1 0-.3.1-.4.2-.1.1-.2.3-.1.4.2 1.9 1.7 3.4 3.6 3.6v1.7c0 .3.2.5.5.5h1.8c.3 0 .5-.2.5-.5v-1.8c2.1-.4 3.6-2 3.8-4 .1-1.3-.3-2.6-1.2-3.5-.8-1-2-1.5-3.3-1.5z"/>
        <path d="M50 33.4c-9.2 0-16.6 7.5-16.6 16.6 0 9.2 7.5 16.6 16.6 16.6S66.6 59.2 66.6 50c0-9.2-7.4-16.6-16.6-16.6zm0 30.5c-7.7 0-13.9-6.3-13.9-13.9S42.3 36.1 50 36.1 63.9 42.3 63.9 50 57.7 63.9 50 63.9z"/>
      </g>
    </g>
  </switch>
</svg>