<svg xmlns="http://www.w3.org/2000/svg" viewBox="0 0 100 125">
  <switch>
    <g>
      <path d="M93.5 16.5c-3.9-3.9-10.7-3.9-14.6 0-2 2-3 4.5-3 7.3 0 1.9.6 3.7 1.5 5.3l-15.1 15V22.9c4.5-1.2 7.8-5.2 7.8-10 0-5.7-4.6-10.4-10.4-10.4-5.7 0-10.3 4.6-10.3 10.4 0 4.8 3.3 8.9 7.8 10v21.3l-15-15.1c1-1.6 1.5-3.4 1.5-5.3 0-2.8-1.1-5.3-3-7.3-3.9-3.9-10.8-3.9-14.6 0-2 2-3.1 4.5-3.1 7.3s1.1 5.4 3.1 7.3c2 2 4.5 3 7.3 3 1.9 0 3.7-.6 5.3-1.5l16.7 16.6 8.3.3c.2 0 .3 0 .4.1l16.9-17c1.6 1 3.4 1.5 5.3 1.5 2.8 0 5.3-1.1 7.3-3 2-2 3-4.6 3-7.3-.1-2.8-1.2-5.4-3.1-7.3zM37.1 27.6c-2 2-5.5 2-7.5 0-1-1-1.6-2.4-1.6-3.8s.6-2.8 1.6-3.8 2.4-1.6 3.8-1.6 2.8.6 3.8 1.6 1.6 2.4 1.6 3.8c-.1 1.4-.7 2.7-1.7 3.8zm17.4-14.7c0-3 2.4-5.3 5.3-5.3 3 0 5.3 2.4 5.3 5.3s-2.4 5.3-5.3 5.3c-3-.1-5.3-2.4-5.3-5.3zm35.4 14.7c-2 2-5.5 2-7.5 0-1-1-1.6-2.4-1.6-3.8s.6-2.8 1.6-3.8 2.3-1.6 3.8-1.6c1.4 0 2.7.6 3.7 1.6s1.6 2.4 1.6 3.8-.6 2.7-1.6 3.8zM3.9 82.4c-.7.9-.5 2.2.4 2.9l15.9 11.8c.9.7 2.2.5 2.9-.4l6.3-8.5-19.2-14.3-6.3 8.5zM86.8 53.3l-14.5 4.6c.1.4.1.7 0 1.1-.2 4.1-3.1 7.6-7 8.5l-1 .2c-5.3 1.2-10.7 1.9-16.1 2.1l-4.4.2c-1.4.1-2.5-1-2.6-2.3-.1-1.4 1-2.5 2.4-2.6l4.4-.2c5.1-.3 10.3-.9 15.2-2l1-.2c1.8-.4 3.1-2 3.2-3.9.1-1.1-.4-2.2-1.1-3-.8-.8-1.8-1.3-2.9-1.3l-23.2-.6c-2.6-.1-5.1.7-7.2 2.3L13.8 70.3l20.2 15L53.3 87c3.4.3 6.8-.7 9.5-2.9l28.4-22.5c1.1-.9 1.7-2.1 1.8-3.4.1-1.4-.4-2.7-1.3-3.7-1.2-1.3-3.1-1.7-4.9-1.2z"/>
    </g>
  </switch>
</svg>